<svg width="48" height="29" viewBox="0 0 48 29" fill="none" xmlns="http://www.w3.org/2000/svg">
<path d="M6.55301 18.7798L5.35202 8.45976H5.30398L4.10299 18.7798H6.55301ZM0.5 28.7398L4.31916 0.259766H6.36086L10.18 28.7398H7.72999L7.00939 22.6198H3.67063L2.95003 28.7398H0.5Z" fill="#020E72"/>
<path d="M11.3865 28.7398V0.259766H18.6885V4.09976H13.8365V12.4598H18.064V16.2998H13.8365V24.6598H18.6885V28.7398H11.3865Z" fill="#020E72"/>
<path d="M21.886 28.7398V4.09976H19.0516V0.259766H27.1703V4.09976H24.336V28.7398H21.886Z" fill="#020E72"/>
<path d="M28.1559 28.7398V0.259766H30.5099L34.2089 17.4198H34.257V0.259766H36.707V28.7398H34.4011L30.654 11.6198H30.6059V28.7398H28.1559Z" fill="#020E72"/>
<path d="M43.873 18.7798L42.672 8.45976H42.624L41.423 18.7798H43.873ZM37.82 28.7398L41.6391 0.259766H43.6808L47.5 28.7398H45.05L44.3294 22.6198H40.9906L40.27 28.7398H37.82Z" fill="#020E72"/>
</svg>
