<svg width="80" height="80" viewBox="0 0 80 80" fill="none" xmlns="http://www.w3.org/2000/svg">
<g clip-path="url(#clip0_146_56)">
<path d="M40 80.0002C62.0914 80.0002 80 62.0915 80 40.0002C80 17.9088 62.0914 0 40 0C17.9086 0 0 17.9088 0 40.0002C0 62.0915 17.9086 80.0002 40 80.0002Z" fill="#424242"/>
<path d="M77.8474 52.8251C77.9735 52.4926 78.0952 52.1584 78.2124 51.8226C78.6077 50.5475 78.939 49.2533 79.2049 47.9451C79.2283 47.7919 79.2508 47.6385 79.2724 47.4851L56.5174 24.7326C54.9749 23.1876 52.7174 22.4901 50.0099 22.4901C49.9683 22.488 49.9265 22.488 49.8849 22.4901C49.7208 22.4983 49.5598 22.5388 49.4113 22.6092C49.2628 22.6796 49.1296 22.7785 49.0193 22.9004C48.9091 23.0223 48.8239 23.1647 48.7686 23.3195C48.7134 23.4743 48.6892 23.6384 48.6974 23.8026C48.7056 23.9667 48.7461 24.1277 48.8165 24.2762C48.8869 24.4247 48.9858 24.5579 49.1077 24.6682C49.2296 24.7784 49.372 24.8636 49.5268 24.9189C49.6816 24.9741 49.8458 24.9983 50.0099 24.9901L56.2599 31.2401C56.2572 31.4076 56.2882 31.574 56.3511 31.7293C56.4139 31.8846 56.5074 32.0257 56.6259 32.1441C56.7443 32.2626 56.8854 32.3561 57.0407 32.4189C57.196 32.4818 57.3624 32.5128 57.5299 32.5101L77.8474 52.8276V52.8251ZM47.9149 79.1676C48.8495 78.9924 49.7776 78.7839 50.6974 78.5426C51.9826 78.1861 53.2492 77.7656 54.4924 77.2826C55.7355 76.8004 56.9537 76.2564 58.1424 75.6526C59.3316 75.0467 60.4897 74.3817 61.6124 73.6601C62.7338 72.9397 63.8185 72.1638 64.8624 71.3351C65.9065 70.5073 66.9086 69.6279 67.8649 68.7001C68.8233 67.7696 69.7344 66.7917 70.5949 65.7701C71.4532 64.751 72.26 63.6897 73.0124 62.5901C73.7656 61.4882 74.4631 60.3492 75.1024 59.1776C75.7412 58.0073 76.3211 56.8058 76.8399 55.5776C77.0002 55.1635 77.1535 54.7468 77.2999 54.3276L51.4749 28.5001C49.9687 26.9886 48.1787 25.7895 46.2078 24.9718C44.2368 24.1541 42.1238 23.7338 39.9899 23.7351C37.7499 23.7351 35.6149 24.1901 33.6724 25.0151C33.4049 25.1276 33.1499 25.2651 32.8899 25.3901L31.2599 23.7601C31.2626 23.5926 31.2316 23.4262 31.1687 23.2709C31.1059 23.1156 31.0124 22.9745 30.894 22.856C30.7755 22.7376 30.6344 22.6441 30.4791 22.5813C30.3238 22.5184 30.1574 22.4874 29.9899 22.4901C27.2824 22.4901 25.0249 23.1876 23.4824 24.7326C21.9374 26.2751 21.2399 28.5326 21.2399 31.2401C21.2372 31.4076 21.2682 31.574 21.3311 31.7293C21.3939 31.8846 21.4874 32.0257 21.6059 32.1441C21.7243 32.2626 21.8654 32.3561 22.0207 32.4189C22.176 32.4818 22.3424 32.5128 22.5099 32.5101L24.6599 34.6601C24.0563 36.3708 23.7453 38.171 23.7399 39.9851C23.7408 44.1675 25.3616 48.187 28.2624 51.2001L24.1074 55.3576C23.988 55.4729 23.8928 55.6108 23.8273 55.7633C23.7618 55.9158 23.7273 56.0799 23.7258 56.2458C23.7244 56.4118 23.756 56.5764 23.8189 56.73C23.8817 56.8837 23.9745 57.0232 24.0919 57.1406C24.2093 57.2579 24.3488 57.3508 24.5025 57.4136C24.6561 57.4765 24.8207 57.5081 24.9867 57.5066C25.1526 57.5052 25.3167 57.4707 25.4692 57.4052C25.6217 57.3397 25.7596 57.2445 25.8749 57.1251L47.9149 79.1676Z" fill="#1F212A"/>
<path d="M29.9902 22.4925C27.2827 22.4925 25.0252 23.19 23.4827 24.7325C21.9377 26.2775 21.2402 28.5325 21.2402 31.2425C21.2402 31.5741 21.3719 31.892 21.6064 32.1264C21.8408 32.3608 22.1587 32.4925 22.4902 32.4925C22.8218 32.4925 23.1397 32.3608 23.3741 32.1264C23.6085 31.892 23.7402 31.5741 23.7402 31.2425C23.7402 28.95 24.2927 27.4575 25.2502 26.5C26.2052 25.545 27.7002 24.9925 29.9902 24.9925C30.3218 24.9925 30.6397 24.8608 30.8741 24.6264C31.1085 24.392 31.2402 24.0741 31.2402 23.7425C31.2402 23.411 31.1085 23.0931 30.8741 22.8586C30.6397 22.6242 30.3218 22.4925 29.9902 22.4925ZM49.8827 22.4925C49.7186 22.5007 49.5576 22.5412 49.4091 22.6116C49.2606 22.682 49.1274 22.781 49.0172 22.9028C48.9069 23.0247 48.8217 23.1671 48.7665 23.3219C48.7112 23.4767 48.687 23.6409 48.6952 23.805C48.7034 23.9692 48.7439 24.1301 48.8143 24.2786C48.8847 24.4271 48.9837 24.5603 49.1055 24.6706C49.2274 24.7809 49.3698 24.8661 49.5246 24.9213C49.6794 24.9765 49.8436 25.0007 50.0077 24.9925C52.3027 24.9925 53.7952 25.545 54.7502 26.5C55.7077 27.4575 56.2602 28.95 56.2602 31.2425C56.2602 31.4067 56.2926 31.5692 56.3554 31.7209C56.4182 31.8725 56.5103 32.0103 56.6263 32.1264C56.7424 32.2425 56.8802 32.3346 57.0319 32.3974C57.1835 32.4602 57.3461 32.4925 57.5102 32.4925C57.6744 32.4925 57.8369 32.4602 57.9886 32.3974C58.1402 32.3346 58.278 32.2425 58.3941 32.1264C58.5102 32.0103 58.6023 31.8725 58.6651 31.7209C58.7279 31.5692 58.7602 31.4067 58.7602 31.2425C58.7602 28.535 58.0627 26.2775 56.5177 24.7325C54.9752 23.19 52.7177 22.4925 50.0102 22.4925C49.9686 22.4904 49.9269 22.4904 49.8852 22.4925H49.8827ZM39.9902 23.7375C35.6821 23.7428 31.5519 25.4566 28.5056 28.5029C25.4593 31.5492 23.7455 35.6794 23.7402 39.9875C23.7402 44.3375 25.4677 48.2825 28.2627 51.2025L24.1077 55.3575C23.9883 55.4728 23.8931 55.6108 23.8276 55.7633C23.7621 55.9158 23.7276 56.0798 23.7262 56.2458C23.7247 56.4118 23.7564 56.5764 23.8192 56.73C23.8821 56.8836 23.9749 57.0232 24.0922 57.1405C24.2096 57.2579 24.3492 57.3507 24.5028 57.4136C24.6564 57.4764 24.821 57.508 24.987 57.5066C25.153 57.5052 25.317 57.4707 25.4695 57.4052C25.622 57.3396 25.7599 57.2444 25.8752 57.125L30.1252 52.875C32.9524 55.0556 36.4223 56.2381 39.9927 56.2375C43.7027 56.2375 47.1177 54.975 49.8552 52.8725L54.1102 57.125C54.2255 57.2444 54.3635 57.3396 54.516 57.4052C54.6685 57.4707 54.8325 57.5052 54.9985 57.5066C55.1645 57.508 55.3291 57.4764 55.4827 57.4136C55.6363 57.3507 55.7759 57.2579 55.8932 57.1405C56.0106 57.0232 56.1034 56.8836 56.1663 56.73C56.2291 56.5764 56.2607 56.4118 56.2593 56.2458C56.2579 56.0798 56.2234 55.9158 56.1579 55.7633C56.0923 55.6108 55.9971 55.4728 55.8777 55.3575L51.7227 51.2025C54.6205 48.1882 56.2386 44.1689 56.2377 39.9875C56.2377 31.0275 48.9477 23.7375 39.9877 23.7375H39.9902ZM39.9902 26.2375C47.6002 26.2375 53.7402 32.38 53.7402 39.9875C53.7402 47.595 47.6002 53.7375 39.9902 53.7375C38.1838 53.7402 36.3946 53.3863 34.7252 52.6962C33.0558 52.0062 31.539 50.9935 30.2616 49.7161C28.9843 48.4388 27.9716 46.922 27.2815 45.2525C26.5915 43.5831 26.2376 41.7939 26.2402 39.9875C26.2402 32.38 32.3827 26.2375 39.9902 26.2375ZM39.9702 28.7375C39.8061 28.7401 39.644 28.7751 39.4934 28.8403C39.3427 28.9055 39.2064 28.9998 39.0922 29.1177C38.9779 29.2357 38.8881 29.375 38.8277 29.5276C38.7673 29.6803 38.7376 29.8434 38.7402 30.0075V39.9875C38.7402 40.319 38.8719 40.637 39.1063 40.8714C39.3408 41.1058 39.6587 41.2375 39.9902 41.2375H49.0402C49.3718 41.2375 49.6897 41.1058 49.9241 40.8714C50.1585 40.637 50.2902 40.319 50.2902 39.9875C50.2902 39.656 50.1585 39.3381 49.9241 39.1036C49.6897 38.8692 49.3718 38.7375 49.0402 38.7375H41.2402V30.0075C41.2429 29.84 41.2119 29.6736 41.1491 29.5183C41.0862 29.363 40.9928 29.222 40.8743 29.1035C40.7558 28.985 40.6147 28.8916 40.4594 28.8287C40.3041 28.7658 40.1378 28.7348 39.9702 28.7375Z" fill="white"/>
</g>
<defs>
<clipPath id="clip0_146_56">
<rect width="80" height="80" fill="white"/>
</clipPath>
</defs>
</svg>
