<svg width="80" height="80" viewBox="0 0 80 80" fill="none" xmlns="http://www.w3.org/2000/svg">
<g clip-path="url(#clip0_146_37)">
<path d="M40 80C62.0914 80 80 62.0914 80 40C80 17.9086 62.0914 0 40 0C17.9086 0 0 17.9086 0 40C0 62.0914 17.9086 80 40 80Z" fill="#1D67B1"/>
<path d="M40.083 79.9997C40.9998 79.9973 41.9163 79.9635 42.8307 79.8981C44.1599 79.8043 45.4836 79.6441 46.7969 79.4181C48.1112 79.1901 49.4134 78.8964 50.6984 78.5381C51.9842 78.1833 53.2514 77.7643 54.4953 77.2828C55.7372 76.7992 56.9541 76.2539 58.1415 75.6489C59.3299 75.0435 60.4872 74.3791 61.6092 73.6581C62.7313 72.9385 63.8168 72.1631 64.8615 71.3351C65.907 70.5058 66.9103 69.6247 67.8676 68.6951C68.8246 67.7658 69.7344 66.7891 70.5938 65.7689C71.4525 64.7484 72.2597 63.6855 73.0123 62.5843C73.7661 61.4835 74.4644 60.3457 75.1046 59.1751C75.7447 58.0049 76.326 56.8034 76.8461 55.5751C77.3648 54.3474 77.8217 53.0945 78.2153 51.8212C78.608 50.5461 78.9366 49.2522 79.2 47.9443C79.4668 46.6372 79.6681 45.3176 79.803 43.9905C79.8845 43.0366 79.9317 42.08 79.9446 41.1228L57.2615 18.4366H41.3015L41.6246 20.2458L41.8615 21.5689L36.9876 16.6951L24.68 26.9535V33.8212H21.603V61.5135L40.083 79.9997Z" fill="#154082"/>
<path d="M36.9813 16.6981L24.6736 26.9566V33.8243H21.5967V61.5166H36.9813V16.6981ZM41.2982 18.4397L41.6213 20.2489L43.1351 28.812V61.5166H55.4428V29.3412L57.2582 18.4397H41.2982ZM44.9659 21.5166H53.6213L52.5998 27.6704H46.0582L44.9659 21.5166ZM33.9013 23.2643V27.6704H28.6182L33.9013 23.2643ZM27.7505 30.7474H33.9044V33.8243H27.7505V30.7474ZM46.2121 30.7474H52.3659V33.8243H46.2121V30.7474ZM24.6736 36.9012H33.9044V39.9781H24.6736V36.9012ZM46.2121 36.9012H52.3659V58.4397H46.2121V36.9012ZM24.6736 43.055H33.9044V58.4397H24.6736V43.055Z" fill="white"/>
</g>
<defs>
<clipPath id="clip0_146_37">
<rect width="80" height="80" fill="white"/>
</clipPath>
</defs>
</svg>
