<svg width="360" height="360" viewBox="0 0 360 360" fill="none" xmlns="http://www.w3.org/2000/svg">
<path d="M337.5 179.998C332.392 370.816 65.01 395.57 25.2384 208.977C23.9927 201.691 34.8861 199.674 36.3016 206.933C49.0924 276.07 109.525 326.25 179.999 326.25C373.987 318.237 373.997 41.7725 180 33.75C99.3576 33.75 33.75 99.3576 33.75 180C33.6007 187.386 22.6713 187.416 22.5 180C22.5 93.1531 93.1531 22.5 180 22.5C266.847 22.5 337.5 93.1531 337.5 179.998ZM261.398 86.6492C263.34 84.224 262.947 80.6836 260.519 78.7446C237.524 60.348 209.682 50.6251 180 50.6251C8.39256 57.7172 8.39245 302.287 180.001 309.375C287.384 309.901 348.656 182.909 281.254 99.4806C276.598 93.7671 267.919 100.735 272.472 106.507C334.079 182.197 277.719 298.995 179.998 298.124C114.865 298.125 61.875 245.133 61.875 180C61.026 82.2678 177.79 25.9219 253.494 87.5299C255.913 89.4673 259.461 89.0772 261.398 86.6492ZM90.7223 132.289C85.8993 141.29 82.4716 150.966 80.538 161.051C79.2654 168.307 90.0439 170.435 91.5847 163.172C93.3068 154.204 96.35 145.602 100.637 137.601C102.104 134.863 101.074 131.454 98.3358 129.987C95.5947 128.515 92.1863 129.551 90.7223 132.289ZM116.36 116.36C121.539 111.137 113.629 103.226 108.405 108.405C103.227 113.63 111.137 121.539 116.36 116.36ZM251.428 169.876L224.437 196.183L230.809 233.333C231.169 235.443 230.304 237.574 228.573 238.832L219.284 245.583C217.549 246.84 215.251 247.003 213.363 246.006L180 228.472L146.637 246.006C144.742 247.011 142.451 246.835 140.716 245.583L131.427 238.832C129.696 237.574 128.831 235.443 129.191 233.333L135.563 196.183L108.572 169.876C107.04 168.379 106.488 166.144 107.15 164.108L110.695 153.196C111.357 151.161 113.118 149.675 115.236 149.367L152.537 143.946L169.217 110.149C170.167 108.229 172.12 107.012 174.262 107.012H185.738C187.88 107.012 189.833 108.229 190.783 110.149L207.463 143.946L244.764 149.367C246.882 149.675 248.643 151.161 249.304 153.196L252.85 164.108C253.512 166.144 252.96 168.379 251.428 169.876ZM241.07 164.259L239.686 159.999L202.917 154.655C201.086 154.388 199.503 153.237 198.685 151.576L182.241 118.262H177.759L161.315 151.576C160.496 153.237 158.914 154.388 157.082 154.655L120.314 159.999L118.93 164.259L145.536 190.195C146.86 191.486 147.464 193.348 147.154 195.172L140.872 231.79L144.498 234.421L177.382 217.139C178.201 216.705 179.102 216.491 180 216.491C180.898 216.491 181.799 216.705 182.617 217.139L215.502 234.421L219.128 231.79L212.846 195.172C212.536 193.348 213.14 191.486 214.464 190.195L241.07 164.259ZM187.273 168.522L176.251 179.544L172.727 176.023C170.53 173.826 166.965 173.826 164.773 176.023C162.576 178.22 162.576 181.783 164.773 183.977C169.535 188.165 174.564 196.83 180.228 191.475C180.228 191.475 195.227 176.476 195.227 176.476C200.4 171.259 192.501 163.339 187.273 168.522Z" fill="url(#paint0_linear_147_271)"/>
<defs>
<linearGradient id="paint0_linear_147_271" x1="22.5" y1="179.618" x2="337.5" y2="179.618" gradientUnits="userSpaceOnUse">
<stop stop-color="#020E72"/>
<stop offset="1" stop-color="#08C4DE"/>
</linearGradient>
</defs>
</svg>
