<svg width="45" height="29" viewBox="0 0 45 29" fill="none" xmlns="http://www.w3.org/2000/svg">
<path d="M8.37228 20.62V22.38C8.37228 23.26 8.26891 24.1 8.06217 24.9C7.87132 25.6734 7.60096 26.3667 7.25108 26.98C6.9012 27.5934 6.48771 28.0867 6.0106 28.46C5.5494 28.8067 5.04843 28.98 4.50771 28.98C4.0465 28.98 3.57735 28.8734 3.10024 28.66C2.62313 28.4467 2.19373 28.0734 1.81205 27.54C1.43036 27.0067 1.11229 26.3267 0.857831 25.5C0.619277 24.6467 0.5 23.5667 0.5 22.26V6.58002C0.5 5.64669 0.595422 4.78002 0.786265 3.98002C0.977108 3.18002 1.24747 2.48669 1.59735 1.90002C1.94723 1.31335 2.36072 0.860021 2.83783 0.54002C3.33084 0.193353 3.87156 0.0200195 4.46 0.0200195C5.60506 0.0200195 6.53542 0.646687 7.25108 1.90002C7.60096 2.51336 7.87132 3.24669 8.06217 4.10002C8.26891 4.92669 8.37228 5.83335 8.37228 6.82002V8.42002H5.93903V7.06002C5.93903 6.26002 5.80385 5.56669 5.53349 4.98002C5.26313 4.39335 4.89735 4.10002 4.43614 4.10002C3.83181 4.10002 3.42626 4.42002 3.21952 5.06002C3.02867 5.67335 2.93325 6.46002 2.93325 7.42002V21.98C2.93325 22.8067 3.03663 23.5 3.24337 24.06C3.46602 24.62 3.85566 24.9 4.41229 24.9C4.57132 24.9 4.73831 24.86 4.91325 24.78C5.10409 24.6734 5.27903 24.5134 5.43807 24.3C5.5812 24.0867 5.70048 23.7934 5.7959 23.42C5.89132 23.0467 5.93903 22.58 5.93903 22.02V20.62H8.37228Z" fill="#020E72"/>
<path d="M10.4293 28.74V0.260021H12.8625V28.74H10.4293Z" fill="#020E72"/>
<path d="M15.0835 6.98002C15.0835 5.83335 15.2028 4.82002 15.4413 3.94002C15.6799 3.06002 15.9979 2.32669 16.3955 1.74002C16.7772 1.18002 17.2066 0.753354 17.6837 0.460021C18.1767 0.166687 18.6697 0.0200195 19.1628 0.0200195C19.6558 0.0200195 20.1408 0.166687 20.6179 0.460021C21.1109 0.753354 21.5563 1.18002 21.9538 1.74002C22.3355 2.32669 22.6456 3.06002 22.8842 3.94002C23.1228 4.82002 23.242 5.83335 23.242 6.98002V8.42002H20.8088V6.98002C20.8088 5.99335 20.6418 5.27335 20.3078 4.82002C19.9897 4.34002 19.6081 4.10002 19.1628 4.10002C18.7175 4.10002 18.3278 4.34002 17.9938 4.82002C17.6758 5.27335 17.5167 5.99335 17.5167 6.98002V22.02C17.5167 23.0067 17.6758 23.74 17.9938 24.22C18.3278 24.6734 18.7175 24.9 19.1628 24.9C19.6081 24.9 19.9897 24.6734 20.3078 24.22C20.6418 23.74 20.8088 23.0067 20.8088 22.02V16.66H18.8765V13.06H23.242V22.02C23.242 23.22 23.1228 24.2467 22.8842 25.1C22.6456 25.9534 22.3355 26.66 21.9538 27.22C21.5563 27.8067 21.1109 28.2467 20.6179 28.54C20.1408 28.8334 19.6558 28.98 19.1628 28.98C18.6697 28.98 18.1767 28.8334 17.6837 28.54C17.2066 28.2467 16.7772 27.8067 16.3955 27.22C15.9979 26.66 15.6799 25.9534 15.4413 25.1C15.2028 24.2467 15.0835 23.22 15.0835 22.02V6.98002Z" fill="#020E72"/>
<path d="M25.2884 28.74V0.260021H27.6262L31.2999 17.42H31.3477V0.260021H33.7809V28.74H31.4908L27.7693 11.62H27.7216V28.74H25.2884Z" fill="#020E72"/>
<path d="M40.8978 18.78L39.7051 8.46002H39.6574L38.4646 18.78H40.8978ZM34.8863 28.74L38.6793 0.260021H40.707L44.5 28.74H42.0667L41.3511 22.62H38.0352L37.3195 28.74H34.8863Z" fill="#020E72"/>
</svg>
