<svg width="80" height="80" viewBox="0 0 80 80" fill="none" xmlns="http://www.w3.org/2000/svg">
<g clip-path="url(#clip0_146_65)">
<path fill-rule="evenodd" clip-rule="evenodd" d="M39.9941 0C50.6028 0 60.777 4.21427 68.2784 11.7157C75.7799 19.2172 79.9941 29.3913 79.9941 40C79.9941 50.6087 75.7799 60.7828 68.2784 68.2843C60.777 75.7857 50.6028 80 39.9941 80C29.3855 80 19.2113 75.7857 11.7099 68.2843C4.20841 60.7828 -0.00585937 50.6087 -0.00585938 40C-0.00585937 29.3913 4.20841 19.2172 11.7099 11.7157C19.2113 4.21427 29.3855 0 39.9941 0Z" fill="#A1887F"/>
<mask id="mask0_146_65" style="mask-type:luminance" maskUnits="userSpaceOnUse" x="-1" y="0" width="81" height="80">
<path d="M39.9941 0C50.6028 0 60.777 4.21427 68.2784 11.7157C75.7799 19.2172 79.9941 29.3913 79.9941 40C79.9941 50.6087 75.7799 60.7828 68.2784 68.2843C60.777 75.7857 50.6028 80 39.9941 80C29.3855 80 19.2113 75.7857 11.7099 68.2843C4.20841 60.7828 -0.00585937 50.6087 -0.00585938 40C-0.00585937 29.3913 4.20841 19.2172 11.7099 11.7157C19.2113 4.21427 29.3855 0 39.9941 0Z" fill="white"/>
</mask>
<g mask="url(#mask0_146_65)">
<path fill-rule="evenodd" clip-rule="evenodd" d="M56.3877 27.151L100.753 71.5277L100.835 71.6098L100.905 71.7035L100.964 71.7973L101.022 71.891L101.081 71.9965L101.139 72.1019L101.186 72.2191L101.221 72.3246L56.8564 27.9478L56.8096 27.8307L56.7627 27.7369L56.7158 27.6197L56.6572 27.526L56.5986 27.4205L56.5283 27.3268L56.458 27.2447L56.3877 27.151ZM56.8564 27.9478L101.221 72.3246L101.245 72.3949L56.8799 28.0064L56.8564 27.9478ZM56.8799 28.0064L101.245 72.3949L106.12 86.6442L61.7429 42.2675L56.8799 28.0064Z" fill="#6D4C41"/>
<path fill-rule="evenodd" clip-rule="evenodd" d="M61.7549 42.2675L106.12 86.6442L106.132 86.6911L106.155 86.7497L106.167 86.8082L106.178 86.8668L106.19 86.9254L106.202 86.984L106.214 87.0426V87.1012L106.225 87.1598V87.2184L106.237 87.2653V87.6168L106.225 87.6637V87.7223L106.202 87.7809V87.8394L106.167 87.8863V87.9332L106.143 87.9918L106.132 88.0504L106.108 88.0972L106.096 88.1558L106.073 88.2027L106.05 88.2613L106.038 88.3082L106.014 88.3668L105.991 88.4136L61.626 44.0603L61.6494 44.0017L61.6729 43.9549L61.6963 43.8963L61.7197 43.8494L61.7432 43.7908L61.7549 43.7439L61.7783 43.6854V43.6385L61.8018 43.5799L61.8135 43.5213L61.8252 43.4744L61.8369 43.4158V43.3572L61.8486 43.2987L61.8603 43.2401V43.076L61.8721 43.0174V42.8416L61.8603 42.7831V42.7245L61.8486 42.6659L61.8369 42.619L61.8252 42.5604L61.8135 42.5018L61.8018 42.4432L61.7783 42.3846L61.7666 42.326L61.7549 42.2675Z" fill="#6D4C41"/>
<path fill-rule="evenodd" clip-rule="evenodd" d="M61.6376 44.0603L106.003 88.4253L105.944 88.5191L105.885 88.6245L105.827 88.7183L105.756 88.812L105.686 88.8941L105.616 88.9878L105.534 89.0698L105.464 89.1401L105.382 89.2222L105.288 89.2925L105.194 89.3511L105.1 89.4097L104.995 89.4682L104.889 89.5268L104.772 89.5737L104.667 89.6089L60.3017 45.2438L60.4189 45.197L60.5243 45.1501L60.6298 45.1032L60.7235 45.0446L60.829 44.986L60.9227 44.9157L61.0165 44.8454L61.0985 44.7751L61.1805 44.6931L61.2626 44.6111L61.3329 44.529L61.4032 44.4353L61.4735 44.3533L61.5321 44.2595L61.5907 44.154L61.6376 44.0603ZM60.3017 45.2438L104.643 89.6089L103.026 90.1596L58.6611 45.7946L60.3017 45.2438Z" fill="#6D4C41"/>
<path fill-rule="evenodd" clip-rule="evenodd" d="M58.6609 45.7946L103.038 90.1713L102.838 90.2299L58.4617 45.8649L58.6609 45.7946ZM55.415 44.1775L99.78 88.5425L99.2176 88.5191L54.8408 44.1541L55.415 44.1775Z" fill="#6D4C41"/>
<path fill-rule="evenodd" clip-rule="evenodd" d="M56.6806 45.7477L101.046 90.1127L100.952 90.0658L100.846 90.0072L100.753 89.9486L100.659 89.8783L100.577 89.808L100.495 89.7377L100.413 89.6557L56.0361 45.2906L56.1182 45.361L56.2119 45.443L56.2939 45.5133L56.3877 45.5719L56.4814 45.6422L56.5752 45.7008L56.6806 45.7477Z" fill="#6D4C41"/>
<path fill-rule="evenodd" clip-rule="evenodd" d="M58.4738 45.8649L102.827 90.2299L102.769 90.2534L102.71 90.2651L102.651 90.2885L102.593 90.3002L102.534 90.312L102.476 90.3237H102.417L102.358 90.3354L102.312 90.3471H102.136L102.077 90.3588H101.901L101.854 90.3471H101.796L101.737 90.3354H101.679L101.62 90.312H101.597L101.538 90.2885L101.48 90.2768L101.433 90.2651L101.362 90.2299H101.304L101.257 90.2065L101.198 90.1831L101.151 90.1596L101.105 90.1362L101.046 90.1127L56.6809 45.7477L56.7278 45.7712L56.7864 45.7946L56.8333 45.818L56.8918 45.8415L56.9387 45.8532L56.9973 45.8766L57.0442 45.8883L57.1028 45.9118H57.1614L57.2082 45.9352H57.2668L57.3254 45.9587H57.384L57.4309 45.9704H57.4895L57.5481 45.9821H58.0051L58.0637 45.9587H58.1223L58.1808 45.9469L58.2394 45.9352L58.298 45.9118H58.3566L58.4152 45.8883L58.4738 45.8649ZM54.8412 44.1541L99.2179 88.5191L99.2531 88.6597L99.2882 88.7769L99.2999 88.9175V89.3159L99.2648 89.4448L99.2413 89.5737L99.1945 89.7026L99.1476 89.8198L99.089 89.937L99.0187 90.0542L98.9367 90.1713L98.8546 90.2768L98.7609 90.3705L98.6672 90.4643L98.55 90.5463L98.4445 90.6283L98.3273 90.6987L98.2101 90.7572L98.0695 90.8158L97.9406 90.851L97.8 90.8861L97.6477 90.9096L97.4953 90.9213H97.343L97.1789 90.9096L97.0149 90.8861L96.8508 90.851L96.6868 90.7924L96.511 90.7221L96.3352 90.6518L51.9702 46.275L52.146 46.3571L52.3218 46.4274L52.4858 46.4743L52.6499 46.5211L52.8139 46.5446H53.2826L53.4233 46.5211L53.5639 46.486L53.7045 46.4391L53.8334 46.3922L53.9506 46.3336L54.0678 46.2633L54.1849 46.1813L54.3021 46.0993L54.3959 46.0055L54.4896 45.9001L54.5716 45.8063L54.642 45.6891L54.7123 45.572L54.7709 45.4548L54.8294 45.3376L54.8646 45.2204L54.8998 45.0798L54.9232 44.9626L54.9349 44.822V44.5525L54.9115 44.4236L54.888 44.283L54.8412 44.1541ZM51.9702 46.2868L96.3235 90.6401L96.3001 90.6752L51.9351 46.2985L51.9702 46.2868Z" fill="#6D4C41"/>
<path fill-rule="evenodd" clip-rule="evenodd" d="M51.9466 46.3101L96.3234 90.6986L96.2062 90.6283L51.8412 46.2633L51.9466 46.3101ZM28.8032 28.0532L73.1682 72.43L73.2386 72.4886L73.2971 72.5589L73.3557 72.6292L73.4026 72.6995L73.4612 72.7698L73.5081 72.8518L73.5549 72.9221L73.6018 73.0042L73.6487 73.0862L29.2719 28.7094L29.2368 28.6274L29.1899 28.5571L29.1431 28.4751L29.0962 28.4048L29.0376 28.3345L28.979 28.2641L28.9321 28.1938L28.8618 28.1235L28.8032 28.0532Z" fill="#6D4C41"/>
<path fill-rule="evenodd" clip-rule="evenodd" d="M29.272 28.7095L73.6487 73.0862L73.6721 73.1331L73.6956 73.18L73.7073 73.2385L73.7307 73.2854L73.7542 73.344L73.7659 73.3909L73.7893 73.4495L73.801 73.5081L73.8128 73.5549L73.8362 73.6135V73.6721L73.8479 73.719L73.8596 73.7776V73.8362L73.8714 73.8948V73.9534L73.8831 74.0119V74.3518L73.8714 74.4104V74.469L73.8479 74.5275V74.5861L73.8245 74.6447V74.6916L73.801 74.7502L73.7776 74.8088L73.7659 74.8674L29.3892 30.5024L29.4126 30.4438L29.436 30.3852V30.3266L29.4595 30.268L29.4712 30.2094L29.4829 30.1508V30.1157L29.5063 30.0571V29.8813L29.5181 29.8227V29.5297L29.5063 29.4712L29.4946 29.4126V29.354L29.4595 29.2954V29.2485L29.436 29.1899L29.4243 29.1313L29.4126 29.0845L29.3892 29.0259L29.3774 28.979L29.354 28.9204L29.3306 28.8735L29.3071 28.8149L29.2837 28.7681L29.272 28.7095Z" fill="#6D4C41"/>
<path fill-rule="evenodd" clip-rule="evenodd" d="M48.5249 48.771L92.9017 93.136L92.7845 93.0774L48.4195 48.7124L48.5249 48.771ZM44.822 50.5052L89.1987 94.882V95.3038L89.187 95.503L89.1636 95.6905L89.1401 95.878L89.1167 96.0421L89.0815 96.2061L89.0347 96.3468L88.9878 96.4874L88.9292 96.6163L88.8589 96.7335L88.7886 96.8506L88.7183 96.9444L88.6363 97.0264L88.5425 97.1084L88.437 97.1787L88.3316 97.2373L88.2144 97.2842L88.0972 97.3194L87.98 97.3428L87.8511 97.3662H87.5582L87.4058 97.3545L87.2418 97.3194L87.0777 97.2842L86.902 97.2373L86.7145 97.1905L86.527 97.1202L86.3278 97.0381L86.1286 96.9561L85.9176 96.8506L41.5526 52.4973L41.7635 52.5911L41.9628 52.6848L42.162 52.7669L42.3495 52.8254L42.5369 52.884L42.7127 52.9309L42.8768 52.9661L43.0408 52.9895L43.1932 53.0129H43.4744L43.615 52.9895L43.7322 52.9661L43.8494 52.9309L43.9666 52.884L44.0837 52.8254L44.1658 52.7551L44.2595 52.6731L44.3415 52.5911L44.4236 52.4856L44.4939 52.3802L44.5642 52.263L44.6228 52.1341L44.6697 51.9935L44.7165 51.8411L44.7517 51.6888L44.7751 51.513L44.7986 51.3372L44.822 51.1497V50.7396V50.5052ZM29.3891 30.5023L73.7659 74.8673L73.4846 75.6642L29.1196 31.2992L29.3891 30.5023Z" fill="#6D4C41"/>
<path fill-rule="evenodd" clip-rule="evenodd" d="M41.5524 52.4857L85.9174 96.8507L85.3549 96.5578L40.9782 52.1928L41.5524 52.4857ZM37.3807 50.3178L81.7692 94.6829L81.5114 94.554L37.1464 50.1889L37.3807 50.3178ZM33.5137 48.3961L77.8787 92.7611L77.5975 92.6439L33.2325 48.2789L33.5137 48.3961ZM29.553 46.8493L73.9414 91.2143L73.5196 91.0502L29.1546 46.6852L29.553 46.8493ZM25.6508 45.3142L70.0158 89.6792L68.8557 89.2339L24.4907 44.8572L25.6508 45.3142Z" fill="#6D4C41"/>
<path fill-rule="evenodd" clip-rule="evenodd" d="M24.4912 44.8572L68.8562 89.2339L68.8093 89.3394L68.7624 89.4448L68.7155 89.5386L68.657 89.6441L68.5984 89.7378L68.5281 89.8315L68.4578 89.9136L68.3874 89.9956L68.3054 90.0776L68.2351 90.1596L68.1414 90.23L68.0593 90.3003L67.9656 90.3589L67.8718 90.4175L67.7781 90.476L67.6844 90.5229L23.3193 46.1696L23.4131 46.1227L23.5068 46.0641L23.6006 46.0056L23.6943 45.9353L23.7763 45.8767L23.8584 45.7946L23.9404 45.7243L24.0224 45.6423L24.0927 45.5603L24.163 45.4665L24.2334 45.3845L24.2919 45.2907L24.3505 45.1853L24.3974 45.0798L24.4443 44.9861L24.4912 44.8572Z" fill="#6D4C41"/>
<path fill-rule="evenodd" clip-rule="evenodd" d="M29.143 46.6852L73.508 91.0502L73.4611 91.1205L73.4142 91.1908L73.3674 91.2494L73.3088 91.308L73.2619 91.3666L73.2033 91.4252L73.1447 91.4838L73.0861 91.5306L73.0275 91.5892L72.9689 91.6361L72.9104 91.683L72.8518 91.7299L72.7932 91.765L72.7229 91.8002L72.6643 91.847L72.6057 91.8705L72.5354 91.9056L72.4651 91.9408L72.4065 91.9642L72.3362 91.9877L72.2659 91.9994L72.2073 92.0228L72.137 92.0345L72.0667 92.0462H71.9963L71.926 92.058H71.6565L71.5862 92.0462L71.5159 92.0228L71.4456 92.0111L27.0688 47.6461L27.1509 47.6578L27.2212 47.6695L27.2915 47.6812H27.3618L27.4204 47.6929H27.6313L27.7016 47.6812L27.7719 47.6695L27.8305 47.6578L27.9008 47.6344L27.9711 47.6109L28.0415 47.5875L28.1 47.564L28.1704 47.5406L28.2289 47.5055L28.2993 47.4703L28.3578 47.4351L28.4164 47.4L28.4867 47.3531L28.5453 47.318L28.6039 47.2711L28.6625 47.2242L28.7211 47.1656L28.7797 47.1188L28.8383 47.0602L28.8852 47.0016L28.9438 46.943L28.9906 46.8844L29.0492 46.8141L29.0961 46.7555L29.143 46.6852Z" fill="#6D4C41"/>
<path fill-rule="evenodd" clip-rule="evenodd" d="M33.2328 48.2788L77.5978 92.6556L77.5509 92.7376L77.504 92.8313L77.4572 92.9133L77.3986 92.9954L77.34 93.0774L77.2931 93.1477L77.2345 93.2297L77.1642 93.3L77.1056 93.3704L77.047 93.429L76.9767 93.4993L76.9064 93.5578L76.8478 93.6047L76.7775 93.6633L76.6955 93.7102L76.6252 93.7571L76.5549 93.8039L76.4846 93.8391L76.4025 93.886L76.3322 93.9094L76.2502 93.9445L76.1799 93.968L76.0979 93.9914L76.0158 94.0031L75.9455 94.0266H75.8635L75.7815 94.0383H75.5471L75.4651 94.0149H75.383L75.3127 93.9914L30.936 49.6147L31.018 49.6381L31.1001 49.6498L31.1704 49.6616H31.5688L31.6508 49.6381L31.7328 49.6264L31.8031 49.603L31.8852 49.5795L31.9672 49.5444L32.0375 49.5092L32.1078 49.4741L32.1898 49.4389L32.2602 49.392L32.3305 49.3452L32.4008 49.2983L32.4711 49.2397L32.5414 49.1811L32.6117 49.1225L32.6703 49.0639L32.7406 48.9936L32.7992 48.9233L32.8578 48.853L32.9164 48.7827L32.975 48.7007L33.0336 48.6304L33.0804 48.5483L33.139 48.4546L33.1859 48.3726L33.2328 48.2788ZM30.936 49.6147L75.3127 93.9914L75.219 93.968L75.1252 93.9328L75.0432 93.8977L74.9495 93.8625L74.8674 93.8156L74.7854 93.7453L74.7151 93.6985L74.6448 93.6399L74.5628 93.5696L30.1978 49.2163L30.2681 49.2749L30.3501 49.3334L30.4204 49.392L30.5024 49.4506L30.5845 49.4858L30.6665 49.5327L30.7602 49.5678L30.8423 49.5912L30.936 49.6147Z" fill="#6D4C41"/>
<path fill-rule="evenodd" clip-rule="evenodd" d="M37.1347 50.1889L81.4997 94.554L81.4529 94.6477L81.406 94.7415L81.3591 94.8235L81.3005 94.9055L81.2537 94.9993L81.1951 95.0696L81.1365 95.1516L81.0779 95.2336L81.0076 95.3039L80.949 95.3742L80.8787 95.4328L80.8084 95.5031L80.7381 95.5617L80.6678 95.6203L80.5975 95.6672L80.5271 95.7141L80.4451 95.7609L80.3748 95.8078L80.2928 95.843L80.2225 95.8781L80.1404 95.9133L80.0584 95.9367L79.9881 95.9601L79.9061 95.9836L79.8241 95.9953L79.742 96.007H79.3319L79.2499 95.9836L79.1678 95.9601L34.8028 51.5951L34.8848 51.6186H34.9669L35.0489 51.642H35.377L35.4473 51.6303L35.5293 51.6186L35.6114 51.5951L35.6934 51.5717L35.7754 51.5483L35.8574 51.5131L35.9278 51.4779L36.0098 51.4428L36.0801 51.3959L36.1621 51.349L36.2324 51.3022L36.3027 51.2436L36.373 51.185L36.4434 51.1264L36.5137 51.0678L36.5723 50.9975L36.6426 50.9272L36.7012 50.8569L36.7597 50.7866L36.8301 50.7045L36.8769 50.6225L36.9355 50.5405L36.9824 50.4585L37.041 50.3647L37.0879 50.2827L37.1347 50.1889ZM34.8028 51.5951L79.1678 95.9601L79.0741 95.9484L78.9803 95.925L78.8866 95.8781L78.8046 95.843L78.7108 95.7844L78.6288 95.7375L78.5468 95.6789L78.4765 95.6086L34.0997 51.2319L34.17 51.2904L34.2521 51.3608L34.3341 51.4076L34.4161 51.4545L34.5099 51.5014L34.6036 51.5365L34.6973 51.5717L34.8028 51.5951ZM27.0688 47.6461L71.4456 92.0111L71.3635 91.9877L71.2815 91.9642L71.1995 91.9408L71.1292 91.9057L71.0471 91.8588L70.9768 91.8236L70.9065 91.7768L70.8362 91.7299L70.7776 91.6713L70.7073 91.6127L26.3423 47.2477L26.4126 47.3063L26.4712 47.3531L26.5415 47.4117L26.6118 47.4469L26.6821 47.4938L26.7524 47.5289L26.8344 47.5641L26.9165 47.5992L26.9868 47.6227L27.0688 47.6461Z" fill="#6D4C41"/>
<path fill-rule="evenodd" clip-rule="evenodd" d="M38.67 53.5754L83.0351 97.9405L82.9413 97.917L82.8476 97.8819L82.7538 97.8467L82.6718 97.7998L82.5781 97.753L82.496 97.6944L82.414 97.6358L82.3437 97.5772L37.967 53.2005L38.0373 53.2591L38.1193 53.3176L38.2013 53.3762L38.2833 53.4231L38.3771 53.47L38.4708 53.5051L38.5646 53.5403L38.67 53.5754ZM40.9785 52.1927L85.3553 96.5577L85.3084 96.6515L85.2615 96.7452L85.2029 96.8272L85.1561 96.9093L85.0975 96.9913L85.0389 97.0733L84.9803 97.1436L84.9217 97.2257L84.8631 97.296L84.7928 97.3663L84.7342 97.4249L84.6639 97.4835L84.5936 97.542L84.5233 97.6006L84.453 97.6592L84.3827 97.7061L84.3006 97.753L84.2303 97.7881L84.1483 97.8233L84.078 97.8584L83.996 97.8936L83.9256 97.917L83.8436 97.9405L83.7616 97.9639L83.6796 97.9756H83.5975L83.5155 97.9873H83.2811L83.1991 97.9639L83.1171 97.9522L83.0351 97.9405L38.67 53.5754L38.7521 53.5872L38.8224 53.6106H38.9044L38.9864 53.6223H39.2325L39.3146 53.6106L39.3966 53.5872L39.4786 53.5754L39.5489 53.552L39.6309 53.5286L39.713 53.4934L39.7833 53.4583L39.8653 53.4231L39.9356 53.3762L40.0059 53.3294L40.0879 53.2825L40.1583 53.2356L40.2286 53.177L40.2989 53.1184L40.3575 53.0598L40.4278 52.9895L40.4981 52.9192L40.5567 52.8489L40.6153 52.7786L40.6739 52.7083L40.7324 52.6263L40.791 52.5442L40.8379 52.4622L40.8848 52.3685L40.9317 52.2864L40.9785 52.1927ZM23.3192 46.1578L67.6843 90.5229L67.6374 90.5463L67.5788 90.5697L67.5319 90.5932L67.4733 90.6166L67.4265 90.64L67.3679 90.6518L67.321 90.6752H67.2624L67.2038 90.6986L67.1569 90.7104L67.0983 90.7221L67.0398 90.7338H66.9812L66.9343 90.7455L66.8757 90.7572H66.6999L66.6413 90.7689H66.4773L66.4187 90.7572H66.3601L66.3015 90.7455L66.2429 90.7338L66.1843 90.7221L66.1257 90.7104L66.0671 90.6986L66.0086 90.6752L65.95 90.6635L65.9031 90.64L21.5264 46.2867L21.5849 46.3102L21.6435 46.3219L21.7021 46.3336L21.7607 46.357H21.8193L21.8779 46.3805H21.9365L21.9834 46.3922H22.042L22.1005 46.4039H22.5576L22.6161 46.3922L22.6747 46.3805L22.7333 46.3688L22.7802 46.357L22.8388 46.3453L22.8974 46.3336L22.9443 46.3102L23.0028 46.2985L23.0497 46.275L23.1083 46.2633L23.1669 46.2399L23.2138 46.2164L23.2606 46.193L23.3192 46.1578ZM21.5264 46.2867L65.9031 90.64L65.7039 90.5814L21.3271 46.2047L21.5264 46.2867Z" fill="#6D4C41"/>
<path fill-rule="evenodd" clip-rule="evenodd" d="M21.3271 46.2047L65.7038 90.5814L21.3271 46.193V46.2047ZM21.3271 46.2047L65.7038 90.5814L64.075 90.0307L19.71 45.6656L21.3271 46.2047Z" fill="#6D4C41"/>
<path fill-rule="evenodd" clip-rule="evenodd" d="M19.7099 45.6539L64.0749 90.0189L63.9578 89.9838L63.8523 89.9369L63.7468 89.8783L63.6531 89.8197L63.5476 89.7611L63.4539 89.7025L63.3601 89.6322L63.2781 89.5502L18.9131 45.1852L18.9951 45.2555L19.0889 45.3258L19.1826 45.3961L19.2763 45.4547L19.3818 45.5133L19.4873 45.5602L19.6045 45.607L19.7099 45.6539ZM51.8294 46.2515L96.2062 90.6166L96.2765 90.804L96.3234 90.9915L96.3702 91.179L96.3937 91.3782V91.7532L96.3702 91.9407L96.3351 92.1165L96.2999 92.304L96.2413 92.468L96.171 92.6321L96.089 92.7961L95.9953 92.9485L95.9015 93.0891L95.7843 93.218L95.6671 93.3352L95.55 93.4524L95.3976 93.5578L95.257 93.6398L95.1047 93.7102L94.9523 93.7453L94.7883 93.7922L94.6125 93.8156H94.4485L94.2727 93.8039L94.0852 93.7687L93.8977 93.7102L93.7102 93.6281L93.5227 93.5344L93.3235 93.4172L93.1243 93.2649L92.9251 93.0891L48.5484 48.7475L48.7476 48.9233L48.9468 49.0639L49.1343 49.1811L49.3335 49.2983L49.521 49.3686L49.7085 49.4154L49.8959 49.4506L50.0717 49.474H50.2475L50.4233 49.4389L50.5873 49.4037L50.7397 49.3451L50.892 49.2748L51.0326 49.1928L51.1732 49.0991L51.2904 48.9819L51.4193 48.8647L51.5365 48.7358L51.6302 48.5952L51.724 48.4428L51.806 48.2788L51.8646 48.1147L51.9232 47.939L51.9701 47.7632L52.0052 47.5874L52.0287 47.3999V46.9898L51.9935 46.8023L51.9584 46.6148L51.8998 46.4273L51.8294 46.2515Z" fill="#6D4C41"/>
<path fill-rule="evenodd" clip-rule="evenodd" d="M48.5482 48.7358L92.9132 93.1009L92.9015 93.136L48.513 48.771L48.5482 48.7358ZM48.4193 48.7124L92.8077 93.0774L92.8546 93.2298L92.878 93.3821L92.8898 93.5461V93.7102L92.878 93.8743L92.8546 94.0383L92.8077 94.2024L92.7609 94.3664L92.6905 94.5188L92.6202 94.6828L92.5265 94.8352L92.4327 94.9758L92.3273 95.1164L92.2101 95.2453L92.0929 95.3625L91.964 95.4796L91.8234 95.5734L91.6711 95.6671L91.5187 95.7374L91.3664 95.796L91.2023 95.8312L91.0383 95.8546H90.6867L90.511 95.8078L90.3235 95.7492L90.136 95.6671L89.9602 95.5617L89.7727 95.4445L89.5852 95.2804L45.2085 50.9037L45.396 51.0678L45.5835 51.1849L45.771 51.3021L45.9585 51.3841L46.1342 51.4427L46.3217 51.4779L46.4975 51.4896H46.6616L46.8373 51.4662L47.0014 51.4193L47.1537 51.3607L47.3061 51.2904L47.4584 51.2084L47.5873 51.1146L47.7279 50.9974L47.8451 50.8803L47.9623 50.7514L48.0677 50.6107L48.1615 50.4584L48.2435 50.3178L48.3255 50.1537L48.3841 49.9897L48.4427 49.8256L48.4779 49.6616L48.513 49.4975V49.0171L48.4779 48.853L48.4193 48.7124Z" fill="#6D4C41"/>
<path fill-rule="evenodd" clip-rule="evenodd" d="M41.5995 29.518L50.974 31.182L50.599 30.0922C50.4225 29.5675 50.4375 28.9972 50.6412 28.4824C50.845 27.9676 51.2244 27.5416 51.7123 27.2799L51.7474 27.2564C51.8492 27.2017 51.955 27.1547 52.0638 27.1158L53.8801 26.4947L53.9504 26.4713C54.5216 26.297 55.1377 26.3473 55.673 26.6119C56.2283 26.8837 56.6537 27.3638 56.8565 27.9478L56.88 28.0181L61.743 42.2674C61.8424 42.5593 61.8832 42.8679 61.8631 43.1755C61.843 43.4832 61.7623 43.7838 61.6258 44.0603C61.3541 44.6156 60.8739 45.0409 60.29 45.2438L58.6729 45.7946L58.4619 45.8649C57.876 46.0623 57.2358 46.0202 56.6808 45.7477C56.1255 45.4759 55.7001 44.9958 55.4972 44.4118L55.4152 44.1775L54.8527 44.154C55.3332 45.5602 53.845 47.2242 51.9701 46.275L51.9466 46.3102L51.8294 46.2516C52.6732 48.2437 50.6576 50.7045 48.5484 48.7358L48.5249 48.771L48.4195 48.7124C48.9819 50.2826 46.8141 52.9427 44.822 50.5053C44.904 52.8958 43.8377 53.5989 41.5409 52.4857L40.9784 52.1927C40.5097 53.177 39.6074 53.7864 38.752 53.5989L38.6699 53.5637C37.6153 53.3294 37.0177 51.9935 37.3223 50.5873L37.3927 50.3061L37.1349 50.1772C36.6661 51.1849 35.7521 51.7943 34.885 51.6068L34.8029 51.5834C33.7483 51.349 33.1507 50.0131 33.4671 48.6187L33.5139 48.3843L33.2327 48.2671C32.7523 49.2397 31.8617 49.8139 31.0062 49.6264L30.9359 49.603C29.9399 49.3803 29.3423 48.1617 29.5532 46.8375L29.1431 46.6735C28.6392 47.4 27.8775 47.8101 27.151 47.6461L27.0689 47.6343C26.1901 47.4351 25.6159 46.4508 25.651 45.3024L24.4792 44.8454C24.2687 45.4097 23.8491 45.8713 23.3074 46.1344C22.754 46.4108 22.1137 46.4571 21.5262 46.2633L21.327 46.193L19.7099 45.6423C19.1216 45.442 18.6368 45.0163 18.3623 44.4587C18.2258 44.1823 18.1452 43.8816 18.1251 43.5739C18.105 43.2663 18.1458 42.9577 18.2451 42.6658L23.1199 28.4165L23.1433 28.3462C23.3462 27.7623 23.7716 27.2821 24.3269 27.0103C24.8589 26.7488 25.4702 26.6985 26.0377 26.8697L26.108 26.8932L27.9361 27.5142C28.0533 27.5494 28.1587 27.5963 28.2525 27.6548L28.2876 27.6666C28.7734 27.9302 29.1503 28.357 29.3518 28.8716C29.5534 29.3862 29.5666 29.9555 29.3891 30.4789L29.1196 31.2875H38.3067C39.1035 29.7758 40.2285 29.2954 41.5995 29.5063V29.518Z" fill="#6D4C41"/>
</g>
<path fill-rule="evenodd" clip-rule="evenodd" d="M24.4912 44.8572L29.0027 31.2993H40.3459L54.4663 43.5331C55.8256 45.0096 54.0562 47.4821 51.8063 46.1931C52.7437 48.2555 50.5642 50.8804 48.3611 48.5368C49.1345 50.0836 46.8847 53.0248 44.8223 50.5054C44.9043 52.8959 43.8379 53.599 41.5412 52.4858L34.2525 48.6891L24.4912 44.8572Z" fill="#FECA65"/>
<path fill-rule="evenodd" clip-rule="evenodd" d="M28.6978 40.3925L28.7681 40.416C29.8227 40.6503 30.4321 41.9862 30.1157 43.3807L29.6352 45.5485C29.3188 46.943 28.2056 47.8922 27.151 47.6578L27.0807 47.6461C26.026 47.4117 25.4167 46.0759 25.7331 44.6697L26.2135 42.5135C26.5299 41.1073 27.6431 40.1465 28.6978 40.3925ZM32.5648 42.3729L32.6351 42.3846C33.6897 42.619 34.2991 43.9549 33.9827 45.361L33.5022 47.5172C33.1858 48.9234 32.0726 49.8725 31.018 49.6265H30.936C29.8813 49.3921 29.2837 48.0445 29.6001 46.65L30.0688 44.4822C30.3969 43.0877 31.5101 42.1385 32.5648 42.3729ZM36.4318 44.3533L36.5021 44.365C37.5567 44.5994 38.1544 45.9352 37.8497 47.3414L37.3692 49.4976C37.0528 50.9037 35.9396 51.8412 34.885 51.6068H34.803C33.7483 51.3725 33.1507 50.0249 33.4671 48.6304L33.9358 46.4625C34.2522 45.0564 35.3771 44.1189 36.4318 44.3533ZM40.2871 46.3219L40.3691 46.3454C41.4237 46.5797 42.0214 47.9156 41.7167 49.3101L41.2245 51.4779C40.9198 52.8841 39.7949 53.8216 38.752 53.5872L38.67 53.5755C37.6153 53.3411 37.0177 52.0052 37.3224 50.5991L37.8145 48.4429C38.1192 47.0367 39.2441 46.0876 40.2871 46.3219ZM41.5995 29.5298L51.6068 31.2992L56.0363 44.2009L54.8528 44.1541L44.1189 34.9436L42.1268 34.7678C41.0487 35.9045 39.8652 43.2049 34.803 38.9043L38.3184 31.2992C39.1035 29.7876 40.2285 29.3189 41.5995 29.5298Z" fill="#F0A73F"/>
<path d="M51.9469 46.3102L48.3494 44.2361L48.3963 44.1423L52.0055 46.2282L51.9469 46.3102ZM48.5252 48.771L44.9277 46.6852L44.9746 46.5914L48.5838 48.6773L48.5252 48.771Z" fill="#F0A73F"/>
<path d="M21.3271 46.2048L21.5264 46.2751C21.8182 46.3744 22.1268 46.4152 22.4345 46.3951C22.7421 46.375 23.0428 46.2944 23.3192 46.1579C23.8745 45.8861 24.2999 45.406 24.5028 44.822L29.3893 30.5024C29.5667 29.979 29.5535 29.4097 29.352 28.8951C29.1504 28.3805 28.7735 27.9537 28.2877 27.6901L28.2409 27.6549L21.3271 46.2048Z" fill="#C62828"/>
<path d="M23.1199 28.4283L18.2451 42.6776C18.1458 42.9694 18.105 43.278 18.1251 43.5857C18.1452 43.8933 18.2258 44.194 18.3623 44.4704C18.6368 45.028 19.1216 45.4538 19.7099 45.654L21.327 46.2047L28.2525 27.6666C28.1507 27.6119 28.0449 27.5649 27.9361 27.526L26.108 26.9049L26.0377 26.8815C25.4702 26.7103 24.8589 26.7605 24.3269 27.0221C23.7716 27.2939 23.3462 27.774 23.1433 28.358L23.1199 28.4283Z" fill="#EF5350"/>
<path d="M58.6727 45.7946L58.4618 45.8649C57.8758 46.0624 57.2356 46.0202 56.6806 45.7478C56.1254 45.476 55.7 44.9958 55.4971 44.4119L50.5989 30.0923C50.4224 29.5675 50.4373 28.9972 50.6411 28.4825C50.8448 27.9677 51.2243 27.5417 51.7121 27.2799L51.7355 27.2565L58.6727 45.7946Z" fill="#C62828"/>
<path d="M56.8801 28.0181L61.7432 42.2674C61.8425 42.5593 61.8833 42.8679 61.8632 43.1755C61.8431 43.4832 61.7625 43.7838 61.626 44.0603C61.3542 44.6156 60.8741 45.0409 60.2901 45.2438L58.673 45.7946L51.7476 27.2564C51.8494 27.2017 51.9551 27.1547 52.0639 27.1158L53.8803 26.4947L53.9506 26.4713C54.5217 26.297 55.1378 26.3473 55.6731 26.6119C56.2284 26.8837 56.6538 27.3638 56.8567 27.9478L56.8801 28.0181Z" fill="#EF5350"/>
</g>
<defs>
<clipPath id="clip0_146_65">
<rect width="80" height="80" fill="white"/>
</clipPath>
</defs>
</svg>
