<svg width="66" height="18" viewBox="0 0 66 18" fill="none" xmlns="http://www.w3.org/2000/svg">
<path d="M7.68965 0.926829C7.75314 0.796747 7.87217 0.731707 8.04676 0.731707H10.8084C10.8877 0.731707 10.9512 0.764227 10.9988 0.829268C11.0623 0.878049 11.0941 0.943089 11.0941 1.02439V17.5122C11.0941 17.5935 11.0623 17.6667 10.9988 17.7317C10.9512 17.7805 10.8877 17.8049 10.8084 17.8049H8.02295C7.94359 17.8049 7.87217 17.7805 7.80869 17.7317C7.76107 17.6667 7.73727 17.5935 7.73727 17.5122V6.56098C7.73727 6.49593 7.7214 6.46341 7.68965 6.46341C7.65791 6.46341 7.62617 6.4878 7.59443 6.53659L5.73748 9.90244C5.65812 10.0325 5.59464 10.0976 5.54703 10.0976C5.49941 10.0976 5.43593 10.0325 5.35657 9.90244L3.49963 6.53659C3.46788 6.4878 3.43614 6.46341 3.4044 6.46341C3.37266 6.46341 3.35678 6.49593 3.35678 6.56098V17.5122C3.35678 17.5935 3.32504 17.6667 3.26156 17.7317C3.21394 17.7805 3.15046 17.8049 3.0711 17.8049H0.285684C0.206327 17.8049 0.134906 17.7805 0.071421 17.7317C0.023807 17.6667 0 17.5935 0 17.5122V1.02439C0 0.943089 0.023807 0.878049 0.071421 0.829268C0.134906 0.764227 0.206327 0.731707 0.285684 0.731707H3.02349C3.1822 0.731707 3.30123 0.796747 3.38059 0.926829L5.49941 4.80488C5.54703 4.86992 5.59464 4.86992 5.64225 4.80488L7.68965 0.926829Z" fill="#081EDE"/>
<path d="M17.3994 5.07317C18.7484 5.07317 19.8435 5.44715 20.6847 6.19512C21.5259 6.94309 21.9465 7.92683 21.9465 9.14634V17.5122C21.9465 17.5935 21.9148 17.6667 21.8513 17.7317C21.8037 17.7805 21.7402 17.8049 21.6608 17.8049H18.8754C18.796 17.8049 18.7246 17.7805 18.6611 17.7317C18.6135 17.6667 18.5897 17.5935 18.5897 17.5122V16.9756C18.5897 16.9268 18.5738 16.8943 18.5421 16.878C18.5104 16.8618 18.4786 16.878 18.4469 16.9268C17.9231 17.6098 17.1137 17.9675 16.0186 18C15.098 18 14.2965 17.7398 13.6141 17.2195C12.9475 16.6992 12.6142 15.7073 12.6142 14.2439C12.6142 12.7317 13.0189 11.6911 13.8283 11.122C14.6536 10.5528 15.836 10.2683 17.3756 10.2683H18.4707C18.55 10.2683 18.5897 10.2276 18.5897 10.1463V9.53659C18.5897 9.09756 18.4707 8.73984 18.2326 8.46342C18.0104 8.17073 17.7247 8.02439 17.3756 8.02439C17.1057 8.02439 16.8756 8.11382 16.6852 8.29268C16.5106 8.45529 16.3995 8.69106 16.3519 9C16.336 9.19512 16.2328 9.29268 16.0424 9.29268L13.1855 9.26829C12.9951 9.26829 12.8998 9.17073 12.8998 8.97561C12.9792 7.78862 13.4315 6.84553 14.2568 6.14634C15.0822 5.43089 16.1297 5.07317 17.3994 5.07317ZM17.1613 15.3415C17.5263 15.3415 17.8517 15.2195 18.1374 14.9756C18.4389 14.7154 18.5897 14.374 18.5897 13.9512V12.8049C18.5897 12.7236 18.55 12.6829 18.4707 12.6829H17.4946C17.0661 12.6829 16.7169 12.813 16.4471 13.0732C16.1931 13.3171 16.0662 13.6585 16.0662 14.0976C16.0662 14.5041 16.1614 14.813 16.3519 15.0244C16.5582 15.2358 16.828 15.3415 17.1613 15.3415Z" fill="#081EDE"/>
<path d="M25.9608 17.8049C25.7862 17.8049 25.6751 17.7236 25.6275 17.561L22.7468 5.56098V5.46341C22.7468 5.31707 22.8341 5.2439 23.0087 5.2439H26.0798C26.2703 5.2439 26.3734 5.33333 26.3893 5.5122L27.4844 12.2195C27.5003 12.2683 27.5241 12.2927 27.5558 12.2927C27.5876 12.2927 27.6114 12.2683 27.6273 12.2195L28.6986 5.5122C28.7144 5.33333 28.8176 5.2439 29.0081 5.2439L32.0792 5.29268C32.3014 5.29268 32.3886 5.39837 32.341 5.60976L29.4842 17.561C29.4366 17.7236 29.3255 17.8049 29.1509 17.8049H25.9608Z" fill="#081EDE"/>
<path d="M39.1152 5.12195C39.5438 5.12195 39.8771 5.20325 40.1151 5.36585C40.2421 5.44715 40.2897 5.56911 40.258 5.73171L39.8056 8.58537C39.7898 8.76423 39.6787 8.82927 39.4723 8.78049C39.2978 8.71545 39.0835 8.68293 38.8295 8.68293C38.5915 8.68293 38.3852 8.71545 38.2106 8.78049C37.8455 8.84553 37.5519 9.07317 37.3297 9.46342C37.1075 9.8374 36.9964 10.2764 36.9964 10.7805V17.4878C36.9964 17.5691 36.9647 17.6423 36.9012 17.7073C36.8536 17.7561 36.7901 17.7805 36.7107 17.7805H33.9253C33.846 17.7805 33.7745 17.7561 33.711 17.7073C33.6634 17.6423 33.6396 17.5691 33.6396 17.4878V5.56098C33.6396 5.47967 33.6634 5.41463 33.711 5.36585C33.7745 5.30081 33.846 5.26829 33.9253 5.26829H36.7107C36.7901 5.26829 36.8536 5.30081 36.9012 5.36585C36.9647 5.41463 36.9964 5.47967 36.9964 5.56098V6.5122C36.9964 6.57724 37.0043 6.61789 37.0202 6.63415C37.052 6.63415 37.0837 6.60976 37.1154 6.56098C37.544 5.60163 38.2106 5.12195 39.1152 5.12195Z" fill="#081EDE"/>
<path d="M43.0486 3.85366C42.509 3.85366 42.0566 3.6748 41.6916 3.31707C41.3424 2.94309 41.1678 2.47967 41.1678 1.92683C41.1678 1.35772 41.3424 0.894309 41.6916 0.536586C42.0408 0.178862 42.4931 0 43.0486 0C43.6041 0 44.0485 0.178862 44.3818 0.536586C44.7309 0.894309 44.9055 1.35772 44.9055 1.92683C44.9055 2.47967 44.7309 2.94309 44.3818 3.31707C44.0326 3.6748 43.5882 3.85366 43.0486 3.85366ZM41.6916 17.8049C41.6122 17.8049 41.5408 17.7805 41.4773 17.7317C41.4297 17.6667 41.4059 17.5935 41.4059 17.5122V5.56098C41.4059 5.47967 41.4297 5.41463 41.4773 5.36585C41.5408 5.30081 41.6122 5.26829 41.6916 5.26829H44.477C44.5564 5.26829 44.6199 5.30081 44.6675 5.36585C44.731 5.41463 44.7627 5.47967 44.7627 5.56098V17.5122C44.7627 17.5935 44.731 17.6667 44.6675 17.7317C44.6199 17.7805 44.5564 17.8049 44.477 17.8049H41.6916Z" fill="#081EDE"/>
<path d="M51.9941 1.02439C51.9941 0.943089 52.0179 0.878049 52.0655 0.829268C52.129 0.764227 52.2004 0.731707 52.2797 0.731707H55.0652C55.1445 0.731707 55.208 0.764227 55.2556 0.829268C55.3191 0.878049 55.3508 0.943089 55.3508 1.02439V17.5122C55.3508 17.5935 55.3191 17.6667 55.2556 17.7317C55.208 17.7805 55.1445 17.8049 55.0652 17.8049H52.2797C52.2004 17.8049 52.129 17.7805 52.0655 17.7317C52.0179 17.6667 51.9941 17.5935 51.9941 17.5122V17.122C51.9941 17.0732 51.9782 17.0488 51.9464 17.0488C51.9147 17.0325 51.883 17.0407 51.8512 17.0732C51.3116 17.6911 50.5974 18 49.7086 18C48.6135 18 47.7882 17.6423 47.2327 16.9268C46.6772 16.1951 46.3994 15.187 46.3994 13.9024V9.17073C46.3994 7.85366 46.6772 6.84553 47.2327 6.14634C47.804 5.43089 48.6293 5.07317 49.7086 5.07317C50.0578 5.07317 50.4228 5.14634 50.8037 5.29268C51.1846 5.42276 51.5338 5.66667 51.8512 6.02439C51.883 6.05691 51.9147 6.07317 51.9464 6.07317C51.9782 6.05691 51.9941 6.02439 51.9941 5.97561V1.02439ZM50.8751 15.0488C51.1608 15.0488 51.4068 14.9512 51.6132 14.7561C51.8195 14.561 51.9464 14.3008 51.9941 13.9756V9.09756C51.9464 8.77236 51.8195 8.5122 51.6132 8.31707C51.4068 8.12195 51.1608 8.02439 50.8751 8.02439C50.5418 8.02439 50.272 8.15447 50.0657 8.41463C49.8594 8.6748 49.7562 9.00813 49.7562 9.41463V13.6585C49.7562 14.065 49.8594 14.3984 50.0657 14.6585C50.272 14.9187 50.5418 15.0488 50.8751 15.0488Z" fill="#081EDE"/>
<path d="M66 12.3171C66 12.3984 65.9683 12.4715 65.9048 12.5366C65.8572 12.5854 65.7937 12.6098 65.7143 12.6098H60.4768C60.3974 12.6098 60.3577 12.6504 60.3577 12.7317V13.6341C60.3577 14.0407 60.4609 14.3821 60.6672 14.6585C60.8894 14.9187 61.1672 15.0488 61.5005 15.0488C61.802 15.0488 62.048 14.9512 62.2385 14.7561C62.429 14.5447 62.5559 14.2846 62.6194 13.9756C62.667 13.813 62.7702 13.7317 62.9289 13.7317L65.6667 13.878C65.7461 13.878 65.8095 13.9106 65.8572 13.9756C65.9206 14.0244 65.9445 14.0976 65.9286 14.1951C65.8175 15.4472 65.389 16.3984 64.643 17.0488C63.9129 17.6829 62.8654 18 61.5005 18C60.0879 18 58.9849 17.6423 58.1913 16.9268C57.3977 16.1951 57.001 15.187 57.001 13.9024V9.17073C57.001 7.93496 57.3977 6.94309 58.1913 6.19512C59.0008 5.44715 60.1038 5.07317 61.5005 5.07317C62.8972 5.07317 63.9923 5.44715 64.7858 6.19512C65.5953 6.94309 66 7.93496 66 9.17073V12.3171ZM61.5005 8.02439C61.1672 8.02439 60.8894 8.15447 60.6672 8.41463C60.4609 8.6748 60.3577 9.00813 60.3577 9.41463V10.3659C60.3577 10.4472 60.3974 10.4878 60.4768 10.4878H62.5242C62.6035 10.4878 62.6432 10.4472 62.6432 10.3659V9.41463C62.6432 9.00813 62.5321 8.6748 62.3099 8.41463C62.1036 8.15447 61.8338 8.02439 61.5005 8.02439Z" fill="#081EDE"/>
</svg>
