<svg width="81" height="29" viewBox="0 0 81 29" fill="none" xmlns="http://www.w3.org/2000/svg">
<path d="M0.5 28.74V0.260021H3.02912L6.40987 15.34H6.46149L9.81643 0.260021H12.3714V28.74H9.73901V11.42H9.6874L7.08086 23.66H5.76469L3.18396 11.42H3.13234V28.74H0.5Z" fill="#020E72"/>
<path d="M14.8402 28.74V0.260021H22.6856V4.10002H17.4725V12.46H22.0146V16.3H17.4725V24.66H22.6856V28.74H14.8402Z" fill="#020E72"/>
<path d="M24.3919 28.74V0.260021H28.2888C29.8028 0.260021 30.947 0.900021 31.7212 2.18002C32.5126 3.46002 32.9083 5.27335 32.9083 7.62002V20.94C32.9083 23.6067 32.4868 25.58 31.6438 26.86C30.8179 28.1134 29.6222 28.74 28.0565 28.74H24.3919ZM27.0243 4.10002V24.9H28.2372C28.977 24.9 29.5018 24.62 29.8114 24.06C30.1211 23.4734 30.276 22.5667 30.276 21.34V7.62002C30.276 6.50002 30.1297 5.63335 29.8373 5.02002C29.5448 4.40669 29.0114 4.10002 28.2372 4.10002H27.0243Z" fill="#020E72"/>
<path d="M35.4576 28.74V0.260021H38.0899V28.74H35.4576Z" fill="#020E72"/>
<path d="M49.009 20.62V22.38C49.009 23.26 48.8972 24.1 48.6736 24.9C48.4671 25.6734 48.1746 26.3667 47.7961 26.98C47.4176 27.5934 46.9703 28.0867 46.4541 28.46C45.9552 28.8067 45.4132 28.98 44.8283 28.98C44.3293 28.98 43.8218 28.8734 43.3056 28.66C42.7895 28.4467 42.325 28.0734 41.912 27.54C41.4991 27.0067 41.155 26.3267 40.8797 25.5C40.6217 24.6467 40.4926 23.5667 40.4926 22.26V6.58002C40.4926 5.64669 40.5959 4.78002 40.8023 3.98002C41.0088 3.18002 41.3013 2.48669 41.6798 1.90002C42.0583 1.31335 42.5056 0.860021 43.0218 0.54002C43.5551 0.193353 44.1401 0.0200195 44.7767 0.0200195C46.0154 0.0200195 47.0219 0.646687 47.7961 1.90002C48.1746 2.51336 48.4671 3.24669 48.6736 4.10002C48.8972 4.92669 49.009 5.83335 49.009 6.82002V8.42002H46.3767V7.06002C46.3767 6.26002 46.2305 5.56669 45.938 4.98002C45.6455 4.39335 45.2498 4.10002 44.7508 4.10002C44.0971 4.10002 43.6583 4.42002 43.4347 5.06002C43.2282 5.67335 43.125 6.46002 43.125 7.42002V21.98C43.125 22.8067 43.2368 23.5 43.4605 24.06C43.7013 24.62 44.1229 24.9 44.725 24.9C44.8971 24.9 45.0777 24.86 45.267 24.78C45.4735 24.6734 45.6627 24.5134 45.8348 24.3C45.9896 24.0867 46.1186 23.7934 46.2219 23.42C46.3251 23.0467 46.3767 22.58 46.3767 22.02V20.62H49.009Z" fill="#020E72"/>
<path d="M56.4732 18.78L55.1828 8.46002H55.1312L53.8409 18.78H56.4732ZM49.9698 28.74L54.0731 0.260021H56.2667L60.3701 28.74H57.7378L56.9635 22.62H53.3763L52.6021 28.74H49.9698Z" fill="#020E72"/>
<path d="M64.2987 4.10002V12.98H65.7955C66.26 12.98 66.6299 12.8867 66.9052 12.7C67.1805 12.4867 67.3955 12.1934 67.5504 11.82C67.688 11.4467 67.7826 10.9934 67.8343 10.46C67.8859 9.90002 67.9117 9.26002 67.9117 8.54002C67.9117 7.82002 67.8859 7.19335 67.8343 6.66002C67.7826 6.10002 67.6794 5.62002 67.5246 5.22002C67.1977 4.47335 66.5783 4.10002 65.6665 4.10002H64.2987ZM61.6663 28.74V0.260021H65.8987C68.9956 0.260021 70.544 3.04669 70.544 8.62002C70.544 10.3 70.372 11.7267 70.0279 12.9C69.701 14.0734 69.116 15.02 68.273 15.74L71.1118 28.74H68.3246L65.8729 16.58H64.2987V28.74H61.6663Z" fill="#020E72"/>
<path d="M72.6546 28.74V0.260021H80.5V4.10002H75.2869V12.46H79.829V16.3H75.2869V24.66H80.5V28.74H72.6546Z" fill="#020E72"/>
</svg>
