<svg width="76" height="29" viewBox="0 0 76 29" fill="none" xmlns="http://www.w3.org/2000/svg">
<path d="M0.5 28.74V0.260021H3.0308L6.41381 15.34H6.46546L9.82264 0.260021H12.3793V28.74H9.74517V11.42H9.69352L7.08525 23.66H5.7682L3.18575 11.42H3.1341V28.74H0.5Z" fill="#020E72"/>
<path d="M14.8497 28.74V0.260021H22.7004V4.10002H17.4838V12.46H22.029V16.3H17.4838V24.66H22.7004V28.74H14.8497Z" fill="#020E72"/>
<path d="M24.4078 28.74V0.260021H28.3073C29.8224 0.260021 30.9673 0.900021 31.742 2.18002C32.5339 3.46002 32.9299 5.27335 32.9299 7.62002V20.94C32.9299 23.6067 32.5081 25.58 31.6645 26.86C30.8381 28.1134 29.6416 28.74 28.0749 28.74H24.4078ZM27.0419 4.10002V24.9H28.2557C28.996 24.9 29.5211 24.62 29.831 24.06C30.1409 23.4734 30.2958 22.5667 30.2958 21.34V7.62002C30.2958 6.50002 30.1495 5.63335 29.8568 5.02002C29.5641 4.40669 29.0304 4.10002 28.2557 4.10002H27.0419Z" fill="#020E72"/>
<path d="M35.4809 28.74V0.260021H38.115V28.74H35.4809Z" fill="#020E72"/>
<path d="M49.0414 20.62V22.38C49.0414 23.26 48.9295 24.1 48.7057 24.9C48.4991 25.6734 48.2064 26.3667 47.8276 26.98C47.4489 27.5934 47.0012 28.0867 46.4848 28.46C45.9855 28.8067 45.4432 28.98 44.8578 28.98C44.3585 28.98 43.8507 28.8734 43.3342 28.66C42.8177 28.4467 42.3528 28.0734 41.9396 27.54C41.5265 27.0067 41.1821 26.3267 40.9067 25.5C40.6484 24.6467 40.5193 23.5667 40.5193 22.26V6.58002C40.5193 5.64669 40.6226 4.78002 40.8292 3.98002C41.0358 3.18002 41.3285 2.48669 41.7072 1.90002C42.086 1.31335 42.5336 0.860021 43.0501 0.54002C43.5838 0.193353 44.1692 0.0200195 44.8062 0.0200195C46.0457 0.0200195 47.0529 0.646687 47.8276 1.90002C48.2064 2.51336 48.4991 3.24669 48.7057 4.10002C48.9295 4.92669 49.0414 5.83335 49.0414 6.82002V8.42002H46.4073V7.06002C46.4073 6.26002 46.2609 5.56669 45.9683 4.98002C45.6756 4.39335 45.2796 4.10002 44.7803 4.10002C44.1261 4.10002 43.6871 4.42002 43.4633 5.06002C43.2567 5.67335 43.1534 6.46002 43.1534 7.42002V21.98C43.1534 22.8067 43.2653 23.5 43.4891 24.06C43.7301 24.62 44.1519 24.9 44.7545 24.9C44.9267 24.9 45.1075 24.86 45.2968 24.78C45.5034 24.6734 45.6928 24.5134 45.865 24.3C46.0199 24.0867 46.149 23.7934 46.2523 23.42C46.3556 23.0467 46.4073 22.58 46.4073 22.02V20.62H49.0414Z" fill="#020E72"/>
<path d="M56.5105 18.78L55.2193 8.46002H55.1676L53.8764 18.78H56.5105ZM50.0027 28.74L54.1088 0.260021H56.3039L60.41 28.74H57.7759L57.0012 22.62H53.4116L52.6368 28.74H50.0027Z" fill="#020E72"/>
<path d="M61.7846 28.74V0.260021H64.4187V28.74H61.7846Z" fill="#020E72"/>
<path d="M66.9779 28.74V0.260021H70.8774C72.3924 0.260021 73.5373 0.900021 74.3121 2.18002C75.104 3.46002 75.5 5.27335 75.5 7.62002V20.94C75.5 23.6067 75.0782 25.58 74.2346 26.86C73.4082 28.1134 72.2117 28.74 70.645 28.74H66.9779ZM69.612 4.10002V24.9H70.8258C71.5661 24.9 72.0912 24.62 72.4011 24.06C72.711 23.4734 72.8659 22.5667 72.8659 21.34V7.62002C72.8659 6.50002 72.7196 5.63335 72.4269 5.02002C72.1342 4.40669 71.6005 4.10002 70.8258 4.10002H69.612Z" fill="#020E72"/>
</svg>
