<svg width="176" height="29" viewBox="0 0 176 29" fill="none" xmlns="http://www.w3.org/2000/svg">
<path d="M0.5 28.74V0.260021H3.18227L6.76775 15.34H6.82249L10.3806 0.260021H13.0902V28.74H10.2985V11.42H10.2437L7.47937 23.66H6.0835L3.34649 11.42H3.29175V28.74H0.5Z" fill="#020E72"/>
<path d="M15.5443 6.98002C15.5443 5.83335 15.6812 4.82002 15.9549 3.94002C16.2286 3.06002 16.5935 2.32669 17.0497 1.74002C17.4876 1.18002 17.9803 0.753354 18.5277 0.460021C19.0933 0.166687 19.659 0.0200195 20.2246 0.0200195C20.7903 0.0200195 21.3468 0.166687 21.8942 0.460021C22.4599 0.753354 22.9708 1.18002 23.4269 1.74002C23.8648 2.32669 24.2207 3.06002 24.4944 3.94002C24.7681 4.82002 24.9049 5.83335 24.9049 6.98002V22.02C24.9049 23.22 24.7681 24.2467 24.4944 25.1C24.2207 25.9534 23.8648 26.66 23.4269 27.22C22.9708 27.8067 22.4599 28.2467 21.8942 28.54C21.3468 28.8334 20.7903 28.98 20.2246 28.98C19.659 28.98 19.0933 28.8334 18.5277 28.54C17.9803 28.2467 17.4876 27.8067 17.0497 27.22C16.5935 26.66 16.2286 25.9534 15.9549 25.1C15.6812 24.2467 15.5443 23.22 15.5443 22.02V6.98002ZM18.3361 22.02C18.3361 23.0067 18.5186 23.74 18.8835 24.22C19.2667 24.6734 19.7137 24.9 20.2246 24.9C20.7355 24.9 21.1735 24.6734 21.5384 24.22C21.9216 23.74 22.1132 23.0067 22.1132 22.02V6.98002C22.1132 5.99335 21.9216 5.27335 21.5384 4.82002C21.1735 4.34002 20.7355 4.10002 20.2246 4.10002C19.7137 4.10002 19.2667 4.34002 18.8835 4.82002C18.5186 5.27335 18.3361 5.99335 18.3361 6.98002V22.02Z" fill="#020E72"/>
<path d="M27.3622 28.74V0.260021H30.154V24.66H35.6827V28.74H27.3622Z" fill="#020E72"/>
<path d="M37.5745 28.74V0.260021H40.3662V28.74H37.5745Z" fill="#020E72"/>
<path d="M42.9692 28.74V0.260021H45.6514L49.8664 17.42H49.9212V0.260021H52.7129V28.74H50.0854L45.8157 11.62H45.7609V28.74H42.9692Z" fill="#020E72"/>
<path d="M60.8784 18.78L59.5099 8.46002H59.4551L58.0866 18.78H60.8784ZM53.9811 28.74L58.333 0.260021H60.6594L65.0113 28.74H62.2195L61.3984 22.62H57.594L56.7729 28.74H53.9811Z" fill="#020E72"/>
<path d="M71.4644 28.74V0.260021H74.2562V12.46H77.7048V0.260021H80.4965V28.74H77.7048V16.06H74.2562V28.74H71.4644Z" fill="#020E72"/>
<path d="M83.1181 28.74V0.260021H91.4386V4.10002H85.9098V12.46H90.727V16.3H85.9098V24.66H91.4386V28.74H83.1181Z" fill="#020E72"/>
<path d="M98.8864 18.78L97.5179 8.46002H97.4632L96.0947 18.78H98.8864ZM91.9892 28.74L96.341 0.260021H98.6675L103.019 28.74H100.228L99.4065 22.62H95.602L94.7809 28.74H91.9892Z" fill="#020E72"/>
<path d="M104.394 28.74V0.260021H107.186V24.66H112.715V28.74H104.394Z" fill="#020E72"/>
<path d="M114.327 28.74V4.10002H111.097V0.260021H120.348V4.10002H117.118V28.74H114.327Z" fill="#020E72"/>
<path d="M121.581 28.74V0.260021H124.372V12.46H127.821V0.260021H130.613V28.74H127.821V16.06H124.372V28.74H121.581Z" fill="#020E72"/>
<path d="M142.102 20.62V22.38C142.102 23.26 141.983 24.1 141.746 24.9C141.527 25.6734 141.217 26.3667 140.816 26.98C140.414 27.5934 139.94 28.0867 139.392 28.46C138.863 28.8067 138.289 28.98 137.668 28.98C137.139 28.98 136.601 28.8734 136.053 28.66C135.506 28.4467 135.013 28.0734 134.575 27.54C134.137 27.0067 133.772 26.3267 133.481 25.5C133.207 24.6467 133.07 23.5667 133.07 22.26V6.58002C133.07 5.64669 133.179 4.78002 133.398 3.98002C133.617 3.18002 133.928 2.48669 134.329 1.90002C134.73 1.31335 135.205 0.860021 135.752 0.54002C136.318 0.193353 136.938 0.0200195 137.613 0.0200195C138.927 0.0200195 139.995 0.646687 140.816 1.90002C141.217 2.51336 141.527 3.24669 141.746 4.10002C141.983 4.92669 142.102 5.83335 142.102 6.82002V8.42002H139.31V7.06002C139.31 6.26002 139.155 5.56669 138.845 4.98002C138.535 4.39335 138.115 4.10002 137.586 4.10002C136.893 4.10002 136.427 4.42002 136.19 5.06002C135.971 5.67335 135.862 6.46002 135.862 7.42002V21.98C135.862 22.8067 135.98 23.5 136.218 24.06C136.473 24.62 136.92 24.9 137.559 24.9C137.741 24.9 137.933 24.86 138.133 24.78C138.352 24.6734 138.553 24.5134 138.736 24.3C138.9 24.0867 139.037 23.7934 139.146 23.42C139.256 23.0467 139.31 22.58 139.31 22.02V20.62H142.102Z" fill="#020E72"/>
<path d="M150.018 18.78L148.65 8.46002H148.595L147.226 18.78H150.018ZM143.121 28.74L147.473 0.260021H149.799L154.151 28.74H151.359L150.538 22.62H146.734L145.913 28.74H143.121Z" fill="#020E72"/>
<path d="M158.318 4.10002V12.98H159.905C160.398 12.98 160.79 12.8867 161.082 12.7C161.374 12.4867 161.602 12.1934 161.766 11.82C161.912 11.4467 162.013 10.9934 162.067 10.46C162.122 9.90002 162.149 9.26002 162.149 8.54002C162.149 7.82002 162.122 7.19335 162.067 6.66002C162.013 6.10002 161.903 5.62002 161.739 5.22002C161.392 4.47335 160.735 4.10002 159.768 4.10002H158.318ZM155.526 28.74V0.260021H160.015C163.299 0.260021 164.941 3.04669 164.941 8.62002C164.941 10.3 164.759 11.7267 164.394 12.9C164.047 14.0734 163.427 15.02 162.533 15.74L165.543 28.74H162.587L159.987 16.58H158.318V28.74H155.526Z" fill="#020E72"/>
<path d="M167.179 28.74V0.260021H175.5V4.10002H169.971V12.46H174.788V16.3H169.971V24.66H175.5V28.74H167.179Z" fill="#020E72"/>
</svg>
