<svg width="80" height="80" viewBox="0 0 80 80" fill="none" xmlns="http://www.w3.org/2000/svg">
<g clip-path="url(#clip0_146_28)">
<path d="M40 80C62.0914 80 80 62.0914 80 40C80 17.9086 62.0914 0 40 0C17.9086 0 0 17.9086 0 40C0 62.0914 17.9086 80 40 80Z" fill="#081EDE"/>
<path d="M44.8555 79.6519C45.5045 79.5898 46.1519 79.5119 46.7971 79.4181C48.1114 79.19 49.4136 78.8963 50.6986 78.5381C51.9844 78.1832 53.2516 77.7642 54.4955 77.2827C55.7374 76.7992 56.9543 76.2539 58.1417 75.6489C59.33 75.0435 60.4874 74.3791 61.6094 73.6581C62.7315 72.9384 63.817 72.1631 64.8617 71.335C65.9071 70.5057 66.9104 69.6246 67.8678 68.695C68.8248 67.7657 69.7346 66.7891 70.594 65.7689C71.4527 64.7483 72.2599 63.6855 73.0125 62.5843C73.7663 61.4835 74.4646 60.3456 75.1048 59.175C75.7449 58.0048 76.3262 56.8033 76.8463 55.575C77.365 54.3473 77.8219 53.0945 78.2155 51.8212C78.6082 50.5461 78.9368 49.2522 79.2001 47.9443C79.3968 46.9271 79.5538 45.9028 79.6709 44.8735L57.3971 22.6027C55.1157 20.3129 52.4044 18.4964 49.4189 17.2576C46.4333 16.0188 43.2325 15.3822 40.0001 15.3843C26.4248 15.3843 15.3848 26.4243 15.3848 39.9996C15.3848 46.7873 18.1448 52.9412 22.6032 57.3966L44.8555 79.6519Z" fill="#020E72"/>
<path d="M40.0002 15.3846C26.4248 15.3846 15.3848 26.4246 15.3848 40C15.3848 53.5754 26.4248 64.6154 40.0002 64.6154C53.5755 64.6154 64.6155 53.5754 64.6155 40C64.6155 26.4246 53.5755 15.3846 40.0002 15.3846ZM40.0002 18.4615C51.914 18.4615 61.5386 28.0862 61.5386 40C61.5386 51.9138 51.914 61.5385 40.0002 61.5385C28.0863 61.5385 18.4617 51.9138 18.4617 40C18.4617 28.0862 28.0863 18.4615 40.0002 18.4615ZM33.8463 24.6154V33.8462H24.6155V46.1538H33.8463V55.3846H46.154V46.1538H55.3848V33.8462H46.154V24.6154H33.8463ZM36.9232 27.6923H43.0771V36.9231H52.3078V43.0769H43.0771V52.3077H36.9232V43.0769H27.6925V36.9231H36.9232V27.6923Z" fill="white"/>
</g>
<defs>
<clipPath id="clip0_146_28">
<rect width="80" height="80" fill="white"/>
</clipPath>
</defs>
</svg>
