<svg width="80" height="80" viewBox="0 0 80 80" fill="none" xmlns="http://www.w3.org/2000/svg">
<g clip-path="url(#clip0_146_47)">
<path d="M39.9995 80.0006C62.0909 80.0006 79.9995 62.092 79.9995 40.0006C79.9995 17.9092 62.0909 0.000610352 39.9995 0.000610352C17.9081 0.000610352 -0.000488281 17.9092 -0.000488281 40.0006C-0.000488281 62.092 17.9081 80.0006 39.9995 80.0006Z" fill="#50B748"/>
<path d="M48.9014 78.96C49.8838 78.7486 50.8578 78.5002 51.8214 78.2154C53.0947 77.8218 54.3476 77.3648 55.5753 76.8462C56.8036 76.325 58.0051 75.7428 59.1753 75.1016C60.3459 74.4614 61.4837 73.7631 62.5845 73.0092C63.6856 72.2577 64.7485 71.4516 65.7691 70.5939C66.7893 69.7345 67.766 68.8246 68.6953 67.8677C69.6249 66.9103 70.506 65.907 71.3353 64.8615C72.1633 63.8168 72.9387 62.7314 73.6583 61.6092C74.3793 60.4873 75.0438 59.3299 75.6491 58.1415C76.2541 56.9541 76.7994 55.7372 77.283 54.4954C77.7645 53.2515 78.1835 51.9842 78.5383 50.6985C78.8966 49.4134 79.1903 48.1113 79.4184 46.7969C79.4236 46.7457 79.4287 46.6944 79.4337 46.6431L61.5383 28.7415L60.3414 28.4585C58.5065 28.0439 56.6832 27.5792 54.8737 27.0646C53.2324 26.5929 51.6159 26.0383 50.0307 25.4031C49.9599 25.3785 49.8891 25.3569 49.8183 25.3262C49.4337 25.1723 49.0707 24.9908 48.6953 24.8215C48.2491 24.6215 47.7937 24.4215 47.363 24.2062C47.0768 24.0585 46.8091 23.8923 46.5322 23.7415C46.083 23.4954 45.6307 23.2523 45.203 22.9846C44.886 22.7846 44.5907 22.56 44.286 22.3477C43.8922 22.0708 43.4983 21.8031 43.126 21.5046C42.8768 21.3077 42.6491 21.0831 42.4091 20.8739C42.2707 20.7508 42.1383 20.6215 41.9999 20.4954L39.963 18.4615L38.8522 19.7108C34.1445 24.9969 27.6091 27.4923 19.8122 28.4431L18.4614 28.6062V29.9692C18.4614 37.9077 20.1414 45.6092 23.6183 51.9231C24.243 53.0585 24.9476 54.1323 25.6922 55.1692C25.9076 55.4677 26.1199 55.7723 26.3476 56.0615C26.8571 56.7177 27.394 57.3521 27.9568 57.9631C28.1384 58.16 28.3168 58.3631 28.5045 58.5508C28.5783 58.6277 28.6491 58.7108 28.726 58.7846L48.9014 78.96Z" fill="#10A711"/>
<path d="M39.963 18.4646L38.8522 19.7108C34.1445 24.9969 27.6091 27.4923 19.8122 28.4431L18.4614 28.6062V29.9692C18.4614 37.9077 20.1414 45.6092 23.6183 51.9231C27.0953 58.2369 32.4307 63.1631 39.5599 65.2892L40.0183 65.4277L40.4737 65.2708C54.2522 60.8185 61.5383 46.3139 61.5383 29.9692V28.7446L60.3414 28.4615C52.7568 26.7139 45.763 24.5908 41.1168 19.6831L39.963 18.4615V18.4646ZM40.0368 22.5569C45.0183 27.2092 51.5599 29.4492 58.3353 31.0677C58.0122 45.7785 51.5753 58.0492 39.9876 62.0892C33.9537 60.1354 29.3968 56.0277 26.3168 50.4369C23.3137 44.9908 21.8245 38.1846 21.6645 31.1077C28.7876 30.0277 35.1476 27.4769 40.0337 22.5569H40.0368ZM48.2153 35.7292L36.9937 45.5539L31.8553 40.4215L29.6799 42.5969L36.8491 49.7662L50.246 38.0462L48.2153 35.7292Z" fill="white"/>
</g>
<defs>
<clipPath id="clip0_146_47">
<rect width="80" height="80" fill="white"/>
</clipPath>
</defs>
</svg>
