<svg width="123" height="29" viewBox="0 0 123 29" fill="none" xmlns="http://www.w3.org/2000/svg">
<path d="M9.35078 0.140137V22.2201C9.35078 23.1535 9.23456 24.0201 9.00212 24.8201C8.78755 25.5935 8.47465 26.2868 8.0634 26.9001C7.65215 27.5135 7.17832 27.9935 6.64191 28.3401C6.1055 28.6868 5.53332 28.8601 4.92539 28.8601C4.31746 28.8601 3.74529 28.6868 3.20888 28.3401C2.69035 27.9935 2.22546 27.5135 1.81421 26.9001C1.40296 26.2868 1.08111 25.5935 0.848667 24.8201C0.616222 24.0201 0.5 23.1535 0.5 22.2201V0.140137H3.2357V21.8201C3.2357 22.8335 3.39662 23.5801 3.71847 24.0601C4.04031 24.5401 4.44262 24.7801 4.92539 24.7801C5.40816 24.7801 5.81047 24.5401 6.13232 24.0601C6.45416 23.5801 6.61509 22.8335 6.61509 21.8201V0.140137H9.35078Z" fill="#020E72"/>
<path d="M11.8124 28.6201V0.140137H14.4408L18.5712 17.3001H18.6248V0.140137H21.3605V28.6201H18.7858L14.6017 11.5001H14.5481V28.6201H11.8124Z" fill="#020E72"/>
<path d="M23.9175 28.6201V0.140137H26.6532V28.6201H23.9175Z" fill="#020E72"/>
<path d="M31.1081 28.6201V3.98013H27.9433V0.140137H37.0086V3.98013H33.8438V28.6201H31.1081Z" fill="#020E72"/>
<path d="M38.2164 28.6201V0.140137H46.3699V3.98013H40.9521V12.3401H45.6725V16.1801H40.9521V24.5401H46.3699V28.6201H38.2164Z" fill="#020E72"/>
<path d="M48.1432 28.6201V0.140137H52.1931C53.7665 0.140137 54.9556 0.780136 55.7602 2.06014C56.5827 3.34014 56.9939 5.15347 56.9939 7.50014V20.8201C56.9939 23.4868 56.5559 25.4601 55.6797 26.7401C54.8215 27.9935 53.5788 28.6201 51.9517 28.6201H48.1432ZM50.8789 3.98013V24.7801H52.1394C52.9083 24.7801 53.4536 24.5001 53.7755 23.9401C54.0973 23.3535 54.2582 22.4468 54.2582 21.2201V7.50014C54.2582 6.38014 54.1063 5.51347 53.8023 4.90014C53.4983 4.2868 52.944 3.98013 52.1394 3.98013H50.8789Z" fill="#020E72"/>
<path d="M64.5393 28.6201V0.140137H67.275V12.3401H70.6544V0.140137H73.3901V28.6201H70.6544V15.9401H67.275V28.6201H64.5393Z" fill="#020E72"/>
<path d="M75.959 28.6201V0.140137H84.1124V3.98013H78.6947V12.3401H83.4151V16.1801H78.6947V24.5401H84.1124V28.6201H75.959Z" fill="#020E72"/>
<path d="M91.4108 18.6601L90.0698 8.34014H90.0161L88.6751 18.6601H91.4108ZM84.652 28.6201L88.9165 0.140137H91.1962L95.4607 28.6201H92.725L91.9204 22.5001H88.1923L87.3877 28.6201H84.652Z" fill="#020E72"/>
<path d="M96.8078 28.6201V0.140137H99.5435V24.5401H104.961V28.6201H96.8078Z" fill="#020E72"/>
<path d="M106.541 28.6201V3.98013H103.376V0.140137H112.441V3.98013H109.277V28.6201H106.541Z" fill="#020E72"/>
<path d="M113.649 28.6201V0.140137H116.385V12.3401H119.764V0.140137H122.5V28.6201H119.764V15.9401H116.385V28.6201H113.649Z" fill="#020E72"/>
</svg>
