<svg width="20" height="22" viewBox="0 0 20 22" fill="none" xmlns="http://www.w3.org/2000/svg">
<path d="M17.6982 8.39395H14.3862C13.381 8.39395 12.5661 7.57903 12.5661 6.57377C12.5622 6.57598 12.5574 6.57321 12.5574 6.56878V4.35474C12.5278 4.24266 12.4253 4.15942 12.3042 4.15942H7.69579C7.57472 4.15942 7.47216 4.2427 7.44255 4.35481V6.56881C7.44255 6.57322 7.43778 6.57598 7.43395 6.57378C7.43395 7.57903 6.61904 8.39395 5.61379 8.39395H2.30184C2.15783 8.39395 2.04 8.51181 2.04 8.6558V9.38734C3.28538 10.1018 3.28538 11.8982 2.04 12.6127V13.2642C2.04 13.4082 2.15783 13.5261 2.30184 13.5261H5.53381C6.58323 13.5261 7.43395 14.3768 7.43395 15.4262C7.43778 15.424 7.44255 15.4268 7.44255 15.4312V17.5652C7.47216 17.6773 7.57472 17.7606 7.69579 17.7606H12.3042C12.4253 17.7606 12.5278 17.6773 12.5574 17.5653V15.4312C12.5574 15.4268 12.5622 15.424 12.5661 15.4262C12.5661 14.3768 13.4168 13.5261 14.4662 13.5261H17.6981C17.8422 13.5261 17.96 13.4082 17.96 13.2642V12.6127C16.7146 11.8982 16.7146 10.1018 17.96 9.38733V8.6558C17.96 8.51179 17.8422 8.39395 17.6982 8.39395Z" fill="white"/>
<path fill-rule="evenodd" clip-rule="evenodd" d="M15.2135 5.05336C16.4369 4.35078 17.998 4.76896 18.7064 5.98899L18.8191 6.18313C19.4703 7.3047 19.0849 8.74197 17.96 9.38733V8.6558C17.96 8.51179 17.8422 8.39395 17.6982 8.39395H14.3862C13.381 8.39395 12.5661 7.57903 12.5661 6.57377L15.2135 5.05336ZM17.96 12.6127V13.2642C17.96 13.4082 17.8422 13.5261 17.6981 13.5261H14.4662C13.4168 13.5261 12.5661 14.3768 12.5661 15.4262C12.5622 15.424 12.5574 15.4268 12.5574 15.4312V17.5653C12.5278 17.6773 12.4253 17.7606 12.3042 17.7606H7.69579C7.57472 17.7606 7.47216 17.6773 7.44255 17.5652V15.4312C7.44255 15.4268 7.43778 15.424 7.43395 15.4262C7.43395 14.3768 6.58323 13.5261 5.53381 13.5261H2.30184C2.15783 13.5261 2.04 13.4082 2.04 13.2642V12.6127C0.91506 13.258 0.529705 14.6953 1.18091 15.8169L1.29363 16.011C2.00199 17.231 3.56315 17.6492 4.78652 16.9466L7.43395 15.4262V17.4987C7.43395 17.5217 7.43694 17.5439 7.44255 17.5652V18.4426C7.44255 19.855 8.58756 21 10 21C11.4124 21 12.5574 19.855 12.5574 18.4426V17.5653C12.5631 17.544 12.5661 17.5217 12.5661 17.4987V15.4262L15.2135 16.9466C16.4369 17.6492 17.998 17.231 18.7064 16.011L18.8191 15.8169C19.4703 14.6953 19.0849 13.258 17.96 12.6127ZM12.5661 4.42127V6.57377C12.5622 6.57598 12.5574 6.57321 12.5574 6.56878V4.35474C12.5631 4.376 12.5661 4.39831 12.5661 4.42127ZM7.44255 4.35481V3.55745C7.44255 2.14501 8.58756 1 10 1C11.4124 1 12.5574 2.14501 12.5574 3.55745V4.35474C12.5278 4.24266 12.4253 4.15942 12.3042 4.15942H7.69579C7.57472 4.15942 7.47216 4.2427 7.44255 4.35481ZM7.44255 4.35481C7.43694 4.37606 7.43395 4.39833 7.43395 4.42127V6.57378L4.78652 5.05336C3.56315 4.35078 2.00199 4.76896 1.29363 5.98899L1.18091 6.18313C0.529705 7.3047 0.91506 8.74198 2.04 9.38734V8.6558C2.04 8.51181 2.15783 8.39395 2.30184 8.39395H5.61379C6.61904 8.39395 7.43395 7.57903 7.43395 6.57378C7.43778 6.57598 7.44255 6.57322 7.44255 6.56881V4.35481Z" fill="#081EDE"/>
<path d="M17.96 9.38733V9.38733C19.0849 8.74197 19.4703 7.3047 18.8191 6.18313L18.7064 5.98899C17.998 4.76896 16.4369 4.35078 15.2135 5.05336L12.5661 6.57377M17.96 9.38733V8.6558C17.96 8.51179 17.8422 8.39395 17.6982 8.39395H14.3862C13.381 8.39395 12.5661 7.57903 12.5661 6.57377V6.57377M17.96 9.38733V9.38733C16.7146 10.1018 16.7146 11.8982 17.96 12.6127V12.6127M12.5661 6.57377V6.57377C12.5622 6.57598 12.5574 6.57321 12.5574 6.56878V4.35474M12.5661 6.57377V4.42127C12.5661 4.39831 12.5631 4.376 12.5574 4.35474M17.96 12.6127V12.6127C19.0849 13.258 19.4703 14.6953 18.8191 15.8169L18.7064 16.011C17.998 17.231 16.4369 17.6492 15.2135 16.9466L12.5661 15.4262M17.96 12.6127V13.2642C17.96 13.4082 17.8422 13.5261 17.6981 13.5261H14.4662C13.4168 13.5261 12.5661 14.3768 12.5661 15.4262V15.4262M12.5661 15.4262V17.4987C12.5661 17.5217 12.5631 17.544 12.5574 17.5653M12.5661 15.4262V15.4262C12.5622 15.424 12.5574 15.4268 12.5574 15.4312V17.5653M12.5574 17.5653V18.4426C12.5574 19.855 11.4124 21 10 21V21C8.58756 21 7.44255 19.855 7.44255 18.4426V17.5652M12.5574 17.5653C12.5278 17.6773 12.4253 17.7606 12.3042 17.7606H7.69579C7.57472 17.7606 7.47216 17.6773 7.44255 17.5652M7.44255 17.5652C7.43694 17.5439 7.43395 17.5217 7.43395 17.4987V15.4262M7.44255 17.5652V15.4312C7.44255 15.4268 7.43778 15.424 7.43395 15.4262V15.4262M7.43395 15.4262L4.78652 16.9466C3.56315 17.6492 2.00199 17.231 1.29363 16.011L1.18091 15.8169C0.529705 14.6953 0.91506 13.258 2.04 12.6127V12.6127M7.43395 15.4262V15.4262C7.43395 14.3768 6.58323 13.5261 5.53381 13.5261H2.30184C2.15783 13.5261 2.04 13.4082 2.04 13.2642V12.6127M2.04 12.6127V12.6127C3.28538 11.8982 3.28538 10.1018 2.04 9.38734V9.38734M2.04 9.38734V8.6558C2.04 8.51181 2.15783 8.39395 2.30184 8.39395H5.61379C6.61904 8.39395 7.43395 7.57903 7.43395 6.57378V6.57378M2.04 9.38734V9.38734C0.91506 8.74198 0.529705 7.3047 1.18091 6.18313L1.29363 5.98899C2.00199 4.76896 3.56315 4.35078 4.78652 5.05336L7.43395 6.57378M7.43395 6.57378V4.42127C7.43395 4.39833 7.43694 4.37606 7.44255 4.35481M7.43395 6.57378V6.57378C7.43778 6.57598 7.44255 6.57322 7.44255 6.56881V4.35481M7.44255 4.35481V3.55745C7.44255 2.14501 8.58756 1 10 1V1C11.4124 1 12.5574 2.14501 12.5574 3.55745V4.35474M7.44255 4.35481C7.47216 4.2427 7.57472 4.15942 7.69579 4.15942H12.3042C12.4253 4.15942 12.5278 4.24266 12.5574 4.35474" stroke="#081EDE"/>
</svg>
